# Created by FreeCAD <https://www.freecad.org>
v 13.176337 11.086297 -10.000000
v 14.099325 10.313122 -10.000000
v 16.055191 8.909622 -10.000000
v 9.199685 15.586152 -10.000000
v 8.545888 16.597219 -10.000000
v 9.903114 14.608965 -10.000000
v 17.083195 8.282793 -10.000000
v 20.336563 6.720326 -10.000000
v 19.226551 7.186780 -10.000000
v 24.967094 5.423655 -10.000000
v 6.073820 22.070000 -10.000000
v 29.762812 5.071124 -10.000000
v 5.000000 29.187460 -10.000000
v 26.157927 5.245811 -10.000000
v 31.417261 4.925370 -10.000000
v 34.591606 4.892076 -10.000000
v 32.474419 4.862774 -10.000000
v 33.533371 4.851667 -10.000000
v 37.737041 5.320836 -10.000000
v 38.767487 5.565139 -10.000000
v 40.786667 6.202530 -10.000000
v 44.592155 8.048935 -10.000000
v 46.342464 9.240479 -10.000000
v 45.481808 8.623413 -10.000000
v 47.172089 9.898674 -10.000000
v 50.142223 12.910200 -10.000000
v 48.730476 11.332124 -10.000000
v 49.455551 12.103987 -10.000000
v 50.788876 13.748856 -10.000000
v 51.393970 14.617970 -10.000000
v 52.473877 16.439276 -10.000000
v 53.749645 19.346165 -10.000000
v 54.589050 22.407698 -10.000000
v 54.359032 21.373970 -10.000000
v 54.768520 23.451389 -10.000000
v 30.364399 5.039308 -10.000000
v 55.000000 26.617460 -10.000000
v 29.945646 5.071565 -10.000000
v 30.037020 5.068489 -10.000000
v 55.000000 33.635124 -10.000000
v 5.000000 33.529259 -10.000000
v 55.000000 42.427460 -10.000000
v 5.000000 44.997459 -10.000000
v 55.000000 47.776848 -10.000000
v 5.000000 74.807457 -10.000000
v 55.000000 72.237457 -10.000000
v 8.100000 116.057457 -10.000000
v 30.000000 119.989998 -10.000000
v 7.710657 110.876678 -10.000000
v 52.280777 110.674988 -10.000000
v 51.900002 116.057457 -10.000000
v 56.174072 19.731560 -5.000000
v 54.079010 20.352654 -10.000000
v 56.322491 20.234903 -5.000000
v 56.498608 20.891712 -5.000000
v 56.621838 21.401424 -5.000000
v 54.897018 24.502573 -10.000000
v 58.273239 18.319256 0.000000
v 56.765118 22.065662 -5.000000
v 54.974239 25.558764 -10.000000
v 58.713448 19.610020 0.000000
v 56.862892 22.580467 -5.000000
v 59.090282 20.920689 0.000000
v 54.882732 16.409727 -5.000000
v 52.946129 17.387157 -10.000000
v 53.371719 18.356884 -10.000000
v 55.923180 15.054325 -1.666667
v 56.583572 14.596720 0.000000
v 55.901791 13.415607 0.000000
v 56.197205 16.503462 -2.500000
v 57.770706 17.051455 0.000000
v 55.906525 15.887821 -2.500000
v 56.333782 15.864284 -1.666667
v 57.207039 15.809628 0.000000
v 52.900333 12.988037 -5.000000
v 51.956081 15.515484 -10.000000
v 53.846172 11.738727 -1.666667
v 54.369865 11.159898 0.000000
v 53.523365 10.090651 0.000000
v 54.358608 13.150160 -2.500000
v 53.980446 12.582994 -2.500000
v 54.371330 12.480603 -1.666667
v 55.163303 12.269094 0.000000
v 54.721733 13.726903 -2.500000
v 50.540169 11.710849 -7.500000
v 50.298077 9.834924 -5.000000
v 51.213863 8.669145 -1.666667
v 51.679310 8.082049 0.000000
v 50.686134 7.147461 0.000000
v 51.918282 9.954499 -2.500000
v 51.456959 9.451711 -2.500000
v 51.845520 9.323645 -1.666667
v 52.625801 9.063890 0.000000
v 47.965847 9.147179 -7.500000
v 47.968723 10.596439 -10.000000
v 47.452042 7.340611 -5.000000
v 48.111767 6.005601 -1.666667
v 48.569256 5.428786 0.000000
v 47.450577 4.648777 0.000000
v 49.648628 6.262340 0.000000
v 48.963398 7.128888 -2.500000
v 48.428848 6.704037 -2.500000
v 44.051159 6.883244 -8.333333
v 41.770618 6.594110 -10.000000
v 42.734364 7.033082 -10.000000
v 43.675621 7.518406 -10.000000
v 44.697891 6.827781 -7.500000
v 44.033195 5.198755 -5.000000
v 44.729370 3.893792 -1.666667
v 45.106003 3.256664 0.000000
v 43.885670 2.647862 0.000000
v 46.295246 3.924163 0.000000
v 45.734669 4.876301 -2.500000
v 45.142128 4.536550 -2.500000
v 40.236271 5.212606 -8.333333
v 39.784832 5.859269 -10.000000
v 41.454273 5.253722 -7.500000
v 40.959881 5.066505 -7.500000
v 40.229618 3.622264 -5.000000
v 40.991817 2.281961 -1.666667
v 41.363373 1.611987 0.000000
v 40.067394 1.187370 0.000000
v 42.637138 2.099203 0.000000
v 42.087933 3.088355 -2.500000
v 41.449883 2.844601 -2.500000
v 36.152863 4.266887 -8.333333
v 35.646629 4.983906 -10.000000
v 36.695934 5.126939 -10.000000
v 36.849945 4.372447 -8.333333
v 36.927177 3.994529 -7.500000
v 37.447052 4.089437 -7.500000
v 37.964649 4.196257 -7.500000
v 36.189774 2.702236 -5.000000
v 37.500160 1.737846 -2.500000
v 37.421146 0.529813 0.000000
v 36.077152 0.298433 0.000000
v 38.752281 0.826360 0.000000
v 32.661880 4.067033 -8.333333
v 33.811825 3.678695 -7.500000
v 33.283794 3.667349 -7.500000
v 32.853455 2.466083 -5.000000
v 33.363361 0.033212 0.000000
v 32.000000 0.000000 0.000000
v 35.189205 1.987636 -3.750000
v 34.723488 0.132768 0.000000
v 9.412628 7.059379 0.000000
v 7.475923 8.953681 0.000000
v 8.421352 7.983093 0.000000
v 5.731348 11.026281 0.000000
v 6.578554 9.968870 0.000000
v 12.637823 4.590525 0.000000
v 10.447431 6.184700 0.000000
v 11.523335 5.361106 0.000000
v 4.195235 13.257776 0.000000
v 4.936287 12.123440 0.000000
v 3.509926 14.426634 0.000000
v 14.972024 3.215492 0.000000
v 13.788283 3.874762 0.000000
v 18.694851 1.591399 0.000000
v 16.186272 2.614259 0.000000
v 17.428183 2.072472 0.000000
v 22.613478 0.523003 0.000000
v 19.983309 1.172167 0.000000
v 21.290537 0.815756 0.000000
v 0.391043 23.336792 0.000000
v 0.648960 22.006620 0.000000
v 0.970924 20.690483 0.000000
v 1.356181 19.391462 0.000000
v 1.803830 18.112600 0.000000
v 2.312821 16.856892 0.000000
v 2.881964 15.627276 0.000000
v 25.294073 0.131057 0.000000
v 23.949034 0.294591 0.000000
v 28.000000 0.000000 0.000000
v 26.645451 0.032784 0.000000
v 0.000000 28.000000 0.000000
v 0.024494 26.829082 0.000000
v 0.097932 25.660213 0.000000
v 0.220187 24.495438 0.000000
v 30.000000 0.000000 0.000000
v 59.367199 22.080839 0.000000
v 59.974594 26.807529 0.000000
v 59.594456 23.251730 0.000000
v 59.771641 24.431238 0.000000
v 59.898430 25.617222 0.000000
v 60.000000 28.000000 0.000000
v 60.000000 38.569412 0.000000
v 0.662639 47.956570 0.000000
v 0.000000 45.000000 0.000000
v 60.000000 45.000000 0.000000
v 1.179681 50.942043 0.000000
v 1.549886 53.949257 0.000000
v 1.772365 56.970993 0.000000
v 1.846584 60.000000 0.000000
v 6.257662 120.813583 0.000000
v 3.410191 120.311501 0.000000
v 0.000000 75.000000 0.000000
v 60.000000 75.000000 0.000000
v 1.772365 63.029007 0.000000
v 1.549886 66.050743 0.000000
v 1.179681 69.057961 0.000000
v 0.662639 72.043434 0.000000
v 30.000000 125.000000 0.000000
v 53.669380 120.826447 0.000000
v 56.589809 120.311501 0.000000
v 57.117458 24.350777 -5.000000
v 57.183598 24.933954 -5.000000
v 57.243530 25.518475 -5.000000
v 57.500000 35.657997 -5.000000
v 56.250000 34.535496 -7.500000
v 57.500000 43.443428 -5.000000
v 58.750000 52.848000 -2.500000
v 56.250000 53.543999 -7.500000
v 57.500000 60.003578 -5.000000
v 56.250000 66.466728 -7.500000
v 58.750000 67.155579 -2.500000
v 56.875000 50.052765 -6.250000
v 56.875000 69.956177 -6.250000
v 57.940639 85.207619 -2.500000
v 55.967648 94.555984 -5.000000
v 55.527008 82.967102 -7.500000
v 54.081028 103.045113 -7.500000
v 57.731113 79.305771 -3.750000
v 55.367805 111.356087 -3.750000
v 53.810799 111.149796 -6.875000
v 53.055305 114.919167 -7.222222
v 53.104115 114.125511 -7.500000
v 52.730930 113.804810 -8.333333
v 53.512566 114.513817 -6.666667
v 52.328907 116.090424 -8.333333
v 52.898903 116.393799 -6.666667
v 53.576397 115.391838 -6.111111
v 53.236813 116.646896 -5.833333
v 53.518173 118.302986 -3.888889
v 54.462173 117.811813 -3.333333
v 54.018444 117.355904 -4.166667
v 54.039265 118.775658 -2.777778
v 53.425232 118.880547 -3.333333
v 53.798416 119.201248 -2.500000
v 54.206867 119.589546 -1.666667
v 52.931946 112.662010 -8.333333
v 52.244919 114.795929 -9.166667
v 53.814568 116.406738 -5.138889
v 53.609993 116.967598 -5.000000
v 52.592072 117.333794 -6.666667
v 54.029083 116.620605 -4.722222
v 54.022644 116.230423 -5.000000
v 54.484005 116.720131 -4.166667
v 52.877068 117.485481 -5.833333
v 53.218334 117.367172 -5.277778
v 54.980640 117.277451 -3.333333
v 53.394638 117.507805 -4.861111
v 53.197342 117.704773 -5.000000
v 54.941174 118.335327 -2.500000
v 54.716000 118.790962 -2.222222
v 55.455444 118.926445 -1.666667
v 55.327793 119.815315 -0.833333
v 56.004990 119.585175 -0.833333
v 53.582581 119.921104 -1.666667
v 53.773579 120.089905 -1.250000
v 53.973396 120.275604 -0.833333
v 53.665981 114.043823 -6.666667
v 53.956295 114.969727 -5.833333
v 52.228397 116.661827 -8.333333
v 53.998287 115.616974 -5.416667
v 54.228970 115.861832 -5.000000
v 55.226860 118.118851 -2.500000
v 53.151150 118.183014 -4.583333
v 52.991016 118.073364 -5.000000
v 55.492817 118.431313 -2.083333
v 53.320107 118.309563 -4.166667
v 55.767590 118.760674 -1.666667
v 53.087326 118.627449 -4.166667
v 55.016998 119.293747 -1.527778
v 53.166000 119.147728 -3.333333
v 53.512726 119.417725 -2.500000
v 54.533859 120.388489 -0.416667
v 53.634800 120.390678 -0.833333
v 53.731400 120.477188 -0.625000
v 52.982197 112.376305 -8.333333
v 54.468468 116.123589 -4.583333
v 54.332130 115.677536 -5.000000
v 54.600395 116.561188 -4.166667
v 54.716785 116.402245 -4.166667
v 52.515362 117.568787 -6.666667
v 55.110260 117.143860 -3.333333
v 52.697197 117.904778 -5.833333
v 52.839699 117.980621 -5.416667
v 55.369705 118.010612 -2.500000
v 52.887852 118.257660 -5.000000
v 56.174290 119.527634 -0.833333
v 55.544197 120.316193 -0.208333
v 53.400398 119.769203 -2.083333
v 53.369881 119.525963 -2.500000
v 53.426506 120.003990 -1.666667
v 53.704338 113.926323 -6.666667
v 54.046230 114.760086 -5.833333
v 52.203274 116.804672 -8.333333
v 54.191383 115.223038 -5.416667
v 54.383713 115.585388 -5.000000
v 55.441128 117.956490 -2.500000
v 55.642277 118.335747 -2.083333
v 52.931599 118.526253 -4.583333
v 52.836273 118.349808 -5.000000
v 55.845627 118.719231 -1.666667
v 53.029129 118.706917 -4.166667
v 52.970936 118.786392 -4.166667
v 53.101189 119.214523 -3.333333
v 53.283199 119.458466 -2.708333
v 53.298458 119.580086 -2.500000
v 54.615608 120.588219 -0.104167
v 53.550148 120.419441 -0.833333
v 52.994762 112.304878 -8.333333
v 54.578243 115.951973 -4.583333
v 54.409504 115.539314 -5.000000
v 54.745884 116.362511 -4.166667
v 54.774982 116.322777 -4.166667
v 52.496185 117.627541 -6.666667
v 55.142662 117.110458 -3.333333
v 52.652229 118.009598 -5.833333
v 55.476841 117.929428 -2.500000
v 52.743149 118.177589 -5.416667
v 52.810482 118.395882 -5.000000
v 56.216614 119.513252 -0.833333
v 53.325668 119.816986 -2.083333
v 53.262745 119.607140 -2.500000
v 55.598301 120.441406 -0.052083
v 53.387489 120.024712 -1.666667
v 53.713924 113.896950 -6.666667
v 54.068714 114.707672 -5.833333
v 54.239658 115.124550 -5.416667
v 52.196991 116.840385 -8.333333
v 54.422398 115.516281 -5.000000
v 55.494698 117.915901 -2.500000
v 55.679638 118.311859 -2.083333
v 55.865135 118.708870 -1.666667
v 52.876709 118.612061 -4.583333
v 52.797585 118.418915 -5.000000
v 52.956387 118.806259 -4.166667
v 52.941837 118.826126 -4.166667
v 53.084988 119.231216 -3.333333
v 53.213428 119.515755 -2.708333
v 53.244892 119.620674 -2.500000
v 54.636044 120.638153 -0.026042
v 53.528988 120.426636 -0.833333
v 52.997902 112.287025 -8.333333
v 54.605690 115.909065 -4.583333
v 54.428844 115.504761 -5.000000
v 54.782257 116.312843 -4.166667
v 54.789528 116.302910 -4.166667
v 52.491390 117.642227 -6.666667
v 55.150764 117.102112 -3.333333
v 52.640987 118.035805 -5.833333
v 55.503624 117.909134 -2.500000
v 52.719013 118.226830 -5.416667
v 52.791138 118.430435 -5.000000
v 56.227196 119.509659 -0.833333
v 53.306988 119.828926 -2.083333
v 53.235962 119.627434 -2.500000
v 55.611824 120.472717 -0.013021
v 53.377735 120.029892 -1.666667
v 53.716324 113.889603 -6.666667
v 54.074333 114.694565 -5.833333
v 54.251728 115.099930 -5.416667
v 52.195419 116.849312 -8.333333
v 54.432068 115.499001 -5.000000
v 55.508087 117.905754 -2.500000
v 55.688980 118.305885 -2.083333
v 55.870010 118.706276 -1.666667
v 52.862988 118.633514 -4.583333
v 52.787914 118.436195 -5.000000
v 52.938202 118.831093 -4.166667
v 52.934563 118.836060 -4.166667
v 53.080936 119.235397 -3.333333
v 53.195988 119.530075 -2.708333
v 53.231499 119.630821 -2.500000
v 54.641155 120.650635 -0.006510
v 53.523697 120.428436 -0.833333
v 52.998688 112.282562 -8.333333
v 54.433681 115.496124 -5.000000
v 54.612549 115.898338 -4.583333
v 54.793167 116.297943 -4.166667
v 54.791348 116.300423 -4.166667
v 52.490192 117.645897 -6.666667
v 55.152790 117.100021 -3.333333
v 52.638180 118.042358 -5.833333
v 55.510319 117.904060 -2.500000
v 52.712978 118.239143 -5.416667
v 52.786301 118.439072 -5.000000
v 56.229843 119.508759 -0.833333
v 53.229267 119.632507 -2.500000
v 53.302315 119.831917 -2.083333
v 55.615208 120.480537 -0.003255
v 53.375298 120.031189 -1.666667
v 41.392345 120.468475 -5.000000
v 18.589417 120.465263 -5.000000
v 7.171289 115.869270 -7.222222
v 7.388447 116.243713 -7.500000
v 7.526600 115.383148 -8.333333
v 7.284434 117.039299 -6.666667
v 7.127084 113.182648 -8.333333
v 6.680074 115.228691 -6.666667
v 7.009846 116.973373 -6.111111
v 5.608020 117.287285 -3.888889
v 6.195743 118.540993 -3.333333
v 6.265615 117.810387 -4.166667
v 5.446576 118.391388 -2.777778
v 5.181695 117.510170 -3.333333
v 5.043542 118.370735 -2.500000
v 7.782631 116.077484 -8.750000
v 7.726358 116.483398 -8.333333
v 6.654326 117.360291 -5.138889
v 6.369627 117.014809 -5.000000
v 6.377894 114.323387 -6.666667
v 6.612278 117.739136 -4.722222
v 6.774229 117.725166 -5.000000
v 6.721428 118.423279 -4.166667
v 6.154390 115.346405 -5.833333
v 6.153531 116.239937 -5.277778
v 6.702767 119.056404 -3.333333
v 5.965025 116.304451 -5.000000
v 6.160012 119.206612 -2.500000
v 5.772151 119.157082 -2.222222
v 4.939529 119.166321 -1.666667
v 6.158422 119.807251 -1.666667
v 5.530314 120.119919 -0.833333
v 6.190971 120.342911 -0.833333
v 4.265275 119.268013 -1.250000
v 4.330083 118.845848 -1.666667
v 4.209001 119.673927 -0.833333
v 7.435524 117.491951 -6.666667
v 7.214562 117.769905 -5.833333
v 7.027205 112.632523 -8.333333
v 7.037867 117.365990 -5.833333
v 7.002931 117.731285 -5.416667
v 6.976530 118.080345 -5.000000
v 5.668043 116.428291 -4.583333
v 5.762724 115.949265 -5.000000
v 6.446869 119.699661 -2.083333
v 6.439129 119.415581 -2.500000
v 5.581895 116.891060 -4.166667
v 6.463144 119.967484 -1.666667
v 5.353989 116.584618 -4.166667
v 4.928183 117.252464 -3.333333
v 5.646491 119.647522 -1.527778
v 4.764425 118.161766 -2.500000
v 4.504393 120.150726 -0.416667
v 3.878672 119.562431 -0.833333
v 7.776297 116.758461 -8.333333
v 6.958664 118.413155 -4.583333
v 7.077681 118.257935 -5.000000
v 6.835381 118.576500 -4.166667
v 6.949334 118.729721 -4.166667
v 6.302350 114.097061 -6.666667
v 6.829523 119.185257 -3.333333
v 5.977694 114.942490 -5.833333
v 5.865942 115.454002 -5.416667
v 6.574818 119.378029 -2.708333
v 6.578688 119.520065 -2.500000
v 5.661574 115.771675 -5.000000
v 6.356136 120.398659 -0.833333
v 4.624866 118.057281 -2.500000
v 4.403428 118.407448 -2.083333
v 5.363957 120.514648 -0.208333
v 4.177722 118.765732 -1.666667
v 7.473297 117.605110 -6.666667
v 7.302910 117.971863 -5.833333
v 7.002235 112.494995 -8.333333
v 7.192429 118.110832 -5.416667
v 7.128256 118.346725 -5.000000
v 6.592829 119.791962 -2.083333
v 6.648468 119.572311 -2.500000
v 5.452939 116.097473 -4.583333
v 5.610999 115.682884 -5.000000
v 6.539325 120.007545 -1.666667
v 5.297012 116.508011 -4.166667
v 5.240036 116.431396 -4.166667
v 4.864805 117.188034 -3.333333
v 4.555087 118.005035 -2.500000
v 3.796090 119.534554 -0.833333
v 7.788782 116.827225 -8.333333
v 7.066216 118.578560 -4.583333
v 7.153543 118.391129 -5.000000
v 6.977822 118.768021 -4.166667
v 7.006311 118.806328 -4.166667
v 6.283463 114.040482 -6.666667
v 6.861212 119.217476 -3.333333
v 5.933520 114.841515 -5.833333
v 6.711176 119.488609 -2.708333
v 5.771193 115.264229 -5.416667
v 6.683357 119.598434 -2.500000
v 5.585711 115.638489 -5.000000
v 6.397427 120.412598 -0.833333
v 4.520197 117.978912 -2.500000
v 4.330448 118.361298 -2.083333
v 4.139632 118.745705 -1.666667
v 7.482740 117.633408 -6.666667
v 7.324997 118.022346 -5.833333
v 7.239804 118.205719 -5.416667
v 6.995993 112.460609 -8.333333
v 7.166187 118.413322 -5.000000
v 6.629319 119.815033 -2.083333
v 6.700802 119.611496 -2.500000
v 6.558370 120.017563 -1.666667
v 5.399163 116.014771 -4.583333
v 5.573067 115.616287 -5.000000
v 5.225791 116.412247 -4.166667
v 5.211547 116.393089 -4.166667
v 4.848961 117.171928 -3.333333
v 4.502752 117.965858 -2.500000
v 3.775445 119.527588 -0.833333
v 7.791903 116.844414 -8.333333
v 7.093104 118.619911 -4.583333
v 7.172509 118.424423 -5.000000
v 7.013433 118.815903 -4.166667
v 7.020555 118.825485 -4.166667
v 6.278742 114.026337 -6.666667
v 6.869134 119.225525 -3.333333
v 5.922477 114.816269 -5.833333
v 6.745265 119.516251 -2.708333
v 6.709524 119.618027 -2.500000
v 5.747505 115.216789 -5.416667
v 5.566745 115.605186 -5.000000
v 6.407750 120.416077 -0.833333
v 4.494030 117.959328 -2.500000
v 4.312203 118.349754 -2.083333
v 4.130109 118.740700 -1.666667
v 7.485101 117.640480 -6.666667
v 7.330519 118.034973 -5.833333
v 7.251647 118.229446 -5.416667
v 6.994432 112.452011 -8.333333
v 7.175670 118.429970 -5.000000
v 6.638442 119.820801 -2.083333
v 6.713886 119.621292 -2.500000
v 6.563131 120.020065 -1.666667
v 5.385719 115.994095 -4.583333
v 5.563584 115.599640 -5.000000
v 5.207986 116.388306 -4.166667
v 5.204425 116.383514 -4.166667
v 4.845000 117.167900 -3.333333
v 4.489668 117.956062 -2.500000
v 3.770283 119.525848 -0.833333
v 7.792684 116.848717 -8.333333
v 7.177251 118.432747 -5.000000
v 7.099826 118.630249 -4.583333
v 7.024116 118.830269 -4.166667
v 7.022336 118.827873 -4.166667
v 6.277561 114.022797 -6.666667
v 6.871115 119.227539 -3.333333
v 5.919716 114.809959 -5.833333
v 6.753788 119.523163 -2.708333
v 6.716066 119.622925 -2.500000
v 5.741583 115.204926 -5.416667
v 5.562004 115.596863 -5.000000
v 6.410330 120.416954 -0.833333
v 4.487488 117.954430 -2.500000
v 4.307642 118.346870 -2.083333
v 4.127728 118.739449 -1.666667
v 3.676480 107.202560 -2.500000
v 5.914155 103.640434 -7.500000
v 4.030212 95.248909 -5.000000
v 4.471385 84.450539 -7.500000
v 2.058827 85.702095 -2.500000
v 5.726359 109.472855 -6.250000
v 3.496623 79.821548 -6.250000
v 6.726706 110.283073 -8.125000
v 1.761974 77.591286 -3.125000
v 2.674714 73.421364 -5.000000
v 2.108426 71.971107 -3.333333
v 2.831320 71.934944 -5.000000
v 2.969723 70.444908 -5.000000
v 2.349063 69.983635 -3.333333
v 3.089841 68.951706 -5.000000
v 2.546300 67.989006 -3.333333
v 3.191601 67.455788 -5.000000
v 2.699924 65.988647 -3.333333
v 2.699924 53.946323 -3.333333
v 2.546300 51.945969 -3.333333
v 3.191601 52.446671 -5.000000
v 3.089841 50.950752 -5.000000
v 2.349063 49.951340 -3.333333
v 2.969723 49.457550 -5.000000
v 2.674714 46.481094 -5.000000
v 2.108426 47.963867 -3.333333
v 2.831320 47.967514 -5.000000
v 3.877643 72.625175 -7.500000
v 3.915660 71.880699 -7.500000
v 3.951401 71.135780 -7.500000
v 3.646482 70.408592 -6.666667
v 3.229775 61.962013 -4.444445
v 2.897723 59.967487 -3.333333
v 3.423292 59.951229 -5.000000
v 3.157801 59.206940 -4.166667
v 2.547343 59.978325 -2.222222
v 3.041414 57.453266 -3.888889
v 3.646482 49.461353 -6.666667
v 3.915660 47.972988 -7.500000
v 3.951401 48.717907 -7.500000
v 3.877643 47.228516 -7.500000
v 4.095800 67.405373 -7.500000
v 4.095800 52.448315 -7.500000
v 4.211646 59.926846 -7.500000
v 3.750000 35.359730 -7.500000
v 3.750000 41.785309 -7.500000
v 2.500000 37.881680 -5.000000
v 1.250000 33.286575 -2.500000
v 1.250000 41.095104 -2.500000
v 3.125000 43.305584 -6.250000
v 3.125000 33.148613 -6.250000
v 1.562500 44.044750 -3.125000
v 5.030046 27.983797 -10.000000
v 5.120109 26.783131 -10.000000
v 5.269966 25.588455 -10.000000
v 5.479241 24.402744 -10.000000
v 5.747416 23.228951 -10.000000
v 6.457642 20.928778 -10.000000
v 6.897924 19.808126 -10.000000
v 7.393572 18.710838 -10.000000
v 7.943350 17.639647 -10.000000
v 10.654422 13.668090 -10.000000
v 11.451737 12.765873 -10.000000
v 12.293075 11.904560 -10.000000
v 15.059741 9.586961 -10.000000
v 18.141193 7.708035 -10.000000
v 21.468468 6.309835 -10.000000
v 22.619442 5.956330 -10.000000
v 23.786619 5.660691 -10.000000
v 27.356148 5.127604 -10.000000
v 28.558775 5.069326 -10.000000
v 29.070925 2.536029 -5.000000
v 29.616146 3.804322 -7.500000
v 29.854225 5.072443 -10.000000
v 29.733761 3.803993 -7.500000
v 29.355698 1.267998 -2.500000
v 29.831200 3.169168 -6.250000
v 30.212536 2.532796 -5.000000
v 30.338627 3.794828 -7.500000
v 30.146410 5.061909 -10.000000
v 30.462896 3.791180 -7.500000
v 30.255568 5.052179 -10.000000
v 30.932076 1.263727 -2.500000
v 30.779015 3.154825 -6.250000
vn 0.000000 0.000000 -1.000000
vn 0.000000 0.000000 -1.000000
vn 0.000000 0.000000 -1.000000
vn 0.000000 0.000000 -1.000000
vn 0.000000 0.000000 -1.000000
vn 0.000000 0.000000 -1.000000
vn 0.000000 0.000000 -1.000000
vn 0.000000 0.000000 -1.000000
vn 0.000000 0.000000 -1.000000
vn 0.000000 0.000000 -1.000000
vn 0.000000 0.000000 -1.000000
vn 0.000000 0.000000 -1.000000
vn 0.000000 0.000000 -1.000000
vn 0.000000 0.000000 -1.000000
vn 0.000000 0.000000 -1.000000
vn 0.000000 0.000000 -1.000000
vn 0.000000 0.000000 -1.000000
vn 0.000000 0.000000 -1.000000
vn 0.000000 0.000000 -1.000000
vn 0.000000 0.000000 -1.000000
vn 0.000000 0.000000 -1.000000
vn 0.000000 0.000000 -1.000000
vn 0.000000 0.000000 -1.000000
vn 0.000000 0.000000 -1.000000
vn 0.000000 0.000000 -1.000000
vn 0.000000 0.000000 -1.000000
vn 0.000000 0.000000 -1.000000
vn 0.000000 0.000000 -1.000000
vn 0.000000 0.000000 -1.000000
vn 0.000000 0.000000 -1.000000
vn 0.000000 0.000000 -1.000000
vn 0.000000 0.000000 -1.000000
vn 0.000000 0.000000 -1.000000
vn 0.000000 0.000000 -1.000000
vn 0.000000 0.000000 -1.000000
vn 0.000000 0.000000 -1.000000
vn 0.000000 0.000000 -1.000000
vn 0.000000 0.000000 -1.000000
vn 0.000000 0.000000 -1.000000
vn 0.000000 0.000000 -1.000000
vn 0.000000 0.000000 -1.000000
vn 0.000000 0.000000 -1.000000
vn 0.000000 0.000000 -1.000000
vn 0.000000 0.000000 -1.000000
vn 0.000000 0.000000 -1.000000
vn 0.000000 0.000000 -1.000000
vn 0.000000 0.000000 -1.000000
vn 0.000000 0.000000 -1.000000
vn 0.000000 0.000000 -1.000000
vn 0.000000 0.000000 -1.000000
vn 0.000000 0.000000 -1.000000
vn 0.000000 0.000000 -1.000000
vn 0.000000 0.000000 -1.000000
vn 0.000000 0.000000 -1.000000
vn 0.000000 0.000000 -1.000000
vn 0.000000 0.000000 -1.000000
vn 0.000000 0.000000 -1.000000
vn 0.000000 0.000000 -1.000000
vn 0.000000 0.000000 -1.000000
vn 0.000000 0.000000 -1.000000
vn 0.000000 0.000000 -1.000000
vn 0.000000 0.000000 -1.000000
vn 0.000000 0.000000 -1.000000
vn 0.000000 0.000000 -1.000000
vn 0.000000 0.000000 -1.000000
vn 0.000000 0.000000 -1.000000
vn 0.000000 0.000000 -1.000000
vn 0.000000 0.000000 -1.000000
vn 0.000000 0.000000 -1.000000
vn 0.000000 0.000000 -1.000000
vn 0.000000 0.000000 -1.000000
vn 0.000000 0.000000 -1.000000
vn 0.000000 0.000000 -1.000000
vn 0.000000 0.000000 -1.000000
vn 0.000000 0.000000 -1.000000
vn 0.000000 0.000000 -1.000000
vn 0.000000 0.000000 -1.000000
vn 0.000000 0.000000 -1.000000
vn 0.000000 0.000000 -1.000000
vn 0.000000 -0.000000 -1.000000
vn 0.000000 -0.000000 -1.000000
vn 0.000000 -0.000000 -1.000000
vn 0.000000 0.000000 -1.000000
vn 0.000000 0.000000 -1.000000
vn 0.883730 -0.242298 -0.400392
vn 0.898137 -0.199848 -0.391677
vn 0.910160 -0.156508 -0.383554
vn 0.872904 -0.257389 -0.414476
vn 0.875220 -0.234682 -0.422983
vn 0.915929 -0.111964 -0.385406
vn 0.884178 -0.213762 -0.415373
vn 0.881069 -0.213011 -0.422307
vn 0.923383 -0.067511 -0.377898
vn 0.890472 -0.192080 -0.412510
vn 0.837196 -0.285522 -0.466455
vn 0.885361 -0.190978 -0.423867
vn 0.930713 -0.022646 -0.365048
vn 0.887391 -0.136064 -0.440481
vn 0.884915 -0.168068 -0.434371
vn 0.852723 -0.245169 -0.461255
vn 0.887599 -0.168578 -0.428660
vn 0.840232 -0.368758 -0.397526
vn 0.860881 -0.328874 -0.388234
vn 0.883028 -0.288963 -0.369814
vn 0.854516 -0.332187 -0.399317
vn 0.780650 -0.450620 -0.433045
vn 0.841418 -0.327096 -0.430144
vn 0.898374 -0.264899 -0.350361
vn 0.914980 -0.245343 -0.320340
vn 0.830043 -0.329013 -0.450310
vn 0.821694 -0.387970 -0.417491
vn 0.829984 -0.318056 -0.458221
vn 0.807200 -0.409204 -0.425417
vn 0.816658 -0.385476 -0.429510
vn 0.801489 -0.411986 -0.433454
vn 0.817485 -0.371058 -0.440493
vn 0.804865 -0.408020 -0.430943
vn 0.816590 -0.385560 -0.429563
vn 0.806575 -0.452094 -0.380851
vn 0.835535 -0.416279 -0.358599
vn 0.793991 -0.460009 -0.397454
vn 0.711772 -0.563495 -0.419350
vn 0.758918 -0.506014 -0.409870
vn 0.782423 -0.453306 -0.426999
vn 0.742319 -0.525471 -0.415743
vn 0.756329 -0.504288 -0.416726
vn 0.738816 -0.528495 -0.418143
vn 0.761376 -0.490414 -0.424030
vn 0.743239 -0.526122 -0.413268
vn 0.784788 -0.430285 -0.446053
vn 0.760361 -0.494972 -0.420541
vn 0.751636 -0.473240 -0.459442
vn 0.787394 -0.444588 -0.427027
vn 0.796777 -0.436858 -0.417493
vn 0.774287 -0.487501 -0.403512
vn 0.731127 -0.543268 -0.412690
vn 0.671056 -0.630378 -0.390266
vn 0.698803 -0.595188 -0.396770
vn 0.730401 -0.563182 -0.386445
vn 0.766105 -0.533378 -0.358597
vn 0.805342 -0.504384 -0.311481
vn 0.715370 -0.590393 -0.373739
vn 0.625427 -0.664633 -0.408783
vn 0.720159 -0.564995 -0.402680
vn 0.698172 -0.576199 -0.424913
vn 0.704105 -0.552400 -0.446196
vn 0.673143 -0.617628 -0.406711
vn 0.693798 -0.574742 -0.433953
vn 0.657707 -0.634027 -0.406733
vn 0.685271 -0.599044 -0.414185
vn 0.672575 -0.617106 -0.408440
vn 0.658075 -0.635107 -0.404446
vn 0.657261 -0.634321 -0.406996
vn 0.711094 -0.589070 -0.383852
vn 0.570386 -0.718945 -0.397213
vn 0.604124 -0.689725 -0.399141
vn 0.641363 -0.664090 -0.384238
vn 0.640248 -0.642908 -0.420419
vn 0.654387 -0.657106 -0.374151
vn 0.610271 -0.696325 -0.377759
vn 0.523345 -0.750574 -0.403421
vn 0.559105 -0.723987 -0.404035
vn 0.613411 -0.670253 -0.417719
vn 0.593716 -0.695932 -0.403956
vn 0.573784 -0.721939 -0.386750
vn 0.612492 -0.657513 -0.438784
vn 0.626602 -0.672660 -0.393572
vn 0.568996 -0.715914 -0.404612
vn 0.598304 -0.682671 -0.419515
vn 0.559223 -0.723822 -0.404169
vn 0.383620 -0.842223 -0.378808
vn 0.419164 -0.812943 -0.404258
vn 0.458085 -0.791382 -0.404811
vn 0.501657 -0.776879 -0.380524
vn 0.540818 -0.754309 -0.372202
vn 0.467115 -0.781021 -0.414499
vn 0.523742 -0.737936 -0.425612
vn 0.536218 -0.755513 -0.376391
vn 0.491040 -0.783802 -0.380176
vn 0.408163 -0.818156 -0.404999
vn 0.447348 -0.797013 -0.405771
vn 0.505052 -0.756495 -0.415498
vn 0.453531 -0.790977 -0.410689
vn 0.445657 -0.798782 -0.404150
vn 0.458157 -0.799046 -0.389382
vn 0.480364 -0.766760 -0.425828
vn 0.486016 -0.774909 -0.404108
vn 0.506126 -0.746057 -0.432707
vn 0.515733 -0.760217 -0.395082
vn 0.253470 -0.876710 -0.408817
vn 0.295047 -0.861119 -0.414030
vn 0.339719 -0.853638 -0.394834
vn 0.320323 -0.845893 -0.426449
vn 0.395099 -0.814168 -0.425472
vn 0.314339 -0.852639 -0.417371
vn 0.393957 -0.829879 -0.395093
vn 0.405542 -0.835688 -0.370352
vn 0.324529 -0.857000 -0.400289
vn 0.353610 -0.853150 -0.383531
vn 0.283782 -0.866134 -0.411437
vn 0.325167 -0.850110 -0.414222
vn 0.393684 -0.830267 -0.394550
vn 0.344928 -0.832203 -0.434123
vn 0.385537 -0.813085 -0.436180
vn 0.383414 -0.822252 -0.420589
vn 0.323627 -0.847127 -0.421476
vn 0.318731 -0.855329 -0.408440
vn 0.327306 -0.856758 -0.398543
vn 0.366793 -0.834676 -0.410827
vn 0.078929 -0.906806 -0.414092
vn 0.122362 -0.897664 -0.423352
vn 0.166214 -0.892467 -0.419374
vn 0.135950 -0.897763 -0.418975
vn 0.135906 -0.897476 -0.419603
vn 0.162984 -0.892777 -0.419982
vn 0.209683 -0.884422 -0.416931
vn 0.258095 -0.888313 -0.379852
vn 0.246278 -0.881241 -0.403437
vn 0.252191 -0.867993 -0.427770
vn 0.170718 -0.892683 -0.417100
vn 0.182396 -0.883802 -0.430843
vn 0.163432 -0.895229 -0.414553
vn 0.204359 -0.897341 -0.391174
vn 0.184880 -0.895835 -0.404103
vn 0.247763 -0.884202 -0.395979
vn 0.241157 -0.860629 -0.448510
vn 0.153499 -0.891612 -0.425987
vn 0.197189 -0.885140 -0.421479
vn 0.238259 -0.867945 -0.435779
vn 0.239366 -0.867156 -0.436743
vn 0.199203 -0.874700 -0.441834
vn -0.098779 -0.912783 -0.396320
vn -0.053495 -0.903455 -0.425333
vn -0.009469 -0.902794 -0.429969
vn 0.034492 -0.903285 -0.427653
vn 0.019250 -0.895812 -0.444017
vn 0.090769 -0.895337 -0.436042
vn 0.080015 -0.906328 -0.414931
vn 0.093031 -0.917646 -0.386356
vn 0.002272 -0.905207 -0.424966
vn 0.021878 -0.898109 -0.439228
vn -0.070287 -0.900764 -0.428584
vn -0.028674 -0.894528 -0.446091
vn 0.019393 -0.902474 -0.430307
vn 0.000869 -0.901403 -0.432980
vn 0.064223 -0.907333 -0.415478
vn 0.126525 -0.901420 -0.414046
vn 0.138420 -0.890305 -0.433817
vn 0.065703 -0.897626 -0.435834
vn 0.109689 -0.896282 -0.429707
vn 0.052644 -0.895834 -0.441259
vn 0.062803 -0.887266 -0.456962
vn 0.000000 0.000000 1.000000
vn 0.000000 0.000000 1.000000
vn 0.000000 0.000000 1.000000
vn 0.000000 0.000000 1.000000
vn 0.000000 0.000000 1.000000
vn 0.000000 0.000000 1.000000
vn 0.000000 0.000000 1.000000
vn 0.000000 0.000000 1.000000
vn 0.000000 0.000000 1.000000
vn 0.000000 0.000000 1.000000
vn 0.000000 0.000000 1.000000
vn 0.000000 0.000000 1.000000
vn 0.000000 0.000000 1.000000
vn 0.000000 0.000000 1.000000
vn 0.000000 0.000000 1.000000
vn 0.000000 0.000000 1.000000
vn 0.000000 0.000000 1.000000
vn 0.000000 0.000000 1.000000
vn 0.000000 0.000000 1.000000
vn 0.000000 0.000000 1.000000
vn 0.000000 0.000000 1.000000
vn 0.000000 0.000000 1.000000
vn 0.000000 0.000000 1.000000
vn 0.000000 0.000000 1.000000
vn 0.000000 0.000000 1.000000
vn 0.000000 0.000000 1.000000
vn 0.000000 0.000000 1.000000
vn 0.000000 0.000000 1.000000
vn 0.000000 0.000000 1.000000
vn 0.000000 0.000000 1.000000
vn 0.000000 0.000000 1.000000
vn 0.000000 0.000000 1.000000
vn 0.000000 0.000000 1.000000
vn 0.000000 0.000000 1.000000
vn 0.000000 0.000000 1.000000
vn 0.000000 0.000000 1.000000
vn 0.000000 0.000000 1.000000
vn 0.000000 0.000000 1.000000
vn 0.000000 0.000000 1.000000
vn 0.000000 0.000000 1.000000
vn 0.000000 0.000000 1.000000
vn 0.000000 0.000000 1.000000
vn 0.000000 0.000000 1.000000
vn 0.000000 0.000000 1.000000
vn 0.000000 0.000000 1.000000
vn 0.000000 0.000000 1.000000
vn 0.000000 0.000000 1.000000
vn 0.000000 0.000000 1.000000
vn 0.000000 0.000000 1.000000
vn 0.000000 0.000000 1.000000
vn 0.000000 0.000000 1.000000
vn 0.000000 0.000000 1.000000
vn 0.000000 0.000000 1.000000
vn 0.000000 0.000000 1.000000
vn 0.000000 0.000000 1.000000
vn 0.000000 0.000000 1.000000
vn 0.000000 0.000000 1.000000
vn 0.000000 0.000000 1.000000
vn 0.000000 0.000000 1.000000
vn 0.000000 0.000000 1.000000
vn 0.000000 0.000000 1.000000
vn 0.000000 0.000000 1.000000
vn 0.000000 0.000000 1.000000
vn 0.000000 0.000000 1.000000
vn 0.000000 0.000000 1.000000
vn 0.000000 0.000000 1.000000
vn 0.000000 0.000000 1.000000
vn 0.000000 0.000000 1.000000
vn 0.000000 0.000000 1.000000
vn 0.000000 0.000000 1.000000
vn 0.000000 0.000000 1.000000
vn 0.000000 0.000000 1.000000
vn 0.000000 0.000000 1.000000
vn 0.000000 0.000000 1.000000
vn 0.000000 0.000000 1.000000
vn 0.000000 0.000000 1.000000
vn 0.000000 0.000000 1.000000
vn 0.000000 0.000000 1.000000
vn 0.000000 0.000000 1.000000
vn 0.000000 0.000000 1.000000
vn 0.000000 0.000000 1.000000
vn 0.000000 0.000000 1.000000
vn 0.000000 0.000000 1.000000
vn 0.000000 0.000000 1.000000
vn 0.000000 0.000000 1.000000
vn 0.000000 0.000000 1.000000
vn 0.854768 -0.204025 -0.477226
vn 0.895965 -0.111386 -0.429929
vn 0.898607 -0.101913 -0.426753
vn 0.889355 -0.100863 -0.445954
vn 0.912363 0.000000 -0.409383
vn 0.883759 -0.042773 -0.465983
vn 0.860909 -0.167093 -0.480538
vn 0.872932 -0.131131 -0.469888
vn 0.880065 -0.094084 -0.465439
vn 0.882267 -0.056454 -0.467351
vn 0.879486 -0.018738 -0.475556
vn 0.900725 -0.092354 -0.424460
vn 0.892372 -0.091498 -0.441928
vn 0.894427 0.000000 -0.447214
vn 0.894427 0.000000 -0.447214
vn 0.894427 0.000000 -0.447214
vn 0.894427 0.000000 -0.447214
vn 0.894427 0.000000 -0.447214
vn 0.894427 0.000000 -0.447214
vn 0.894427 0.000000 -0.447214
vn 0.894427 0.000000 -0.447214
vn 0.894427 0.000000 -0.447214
vn 0.894427 0.000000 -0.447214
vn 0.894427 0.000000 -0.447214
vn 0.894427 0.000000 -0.447214
vn 0.894427 0.000000 -0.447214
vn 0.894427 0.000000 -0.447214
vn 0.894427 0.000000 -0.447214
vn 0.894427 0.000000 -0.447214
vn 0.894427 0.000000 -0.447214
vn 0.894427 0.000000 -0.447214
vn 0.894427 0.000000 -0.447214
vn 0.894427 0.000000 -0.447214
vn 0.894427 0.000000 -0.447214
vn 0.894427 0.000000 -0.447214
vn 0.894427 0.000000 -0.447214
vn 0.894427 0.000000 -0.447214
vn 0.894427 0.000000 -0.447214
vn 0.894427 0.000000 -0.447214
vn 0.886525 0.066721 -0.457846
vn 0.889011 0.066474 -0.453036
vn 0.886966 0.064915 -0.457250
vn 0.891148 0.063043 -0.449311
vn 0.885449 0.063768 -0.460340
vn 0.888972 0.064022 -0.453464
vn 0.885191 0.065272 -0.460627
vn 0.886849 0.065394 -0.457408
vn 0.886192 0.063410 -0.458959
vn 0.885475 0.065987 -0.459978
vn 0.892541 0.065071 -0.446246
vn 0.890496 0.065298 -0.450282
vn 0.892350 0.064535 -0.446706
vn 0.892390 0.064200 -0.446675
vn 0.891344 0.066166 -0.448473
vn 0.891502 0.064306 -0.448429
vn 0.857334 0.216225 -0.467145
vn 0.827093 0.230313 -0.512711
vn 0.894325 0.157305 -0.418852
vn 0.907564 0.228889 -0.352048
vn 0.819730 0.276012 -0.501856
vn 0.829525 0.254298 -0.497212
vn 0.838429 0.323873 -0.438342
vn 0.617571 0.503448 -0.604273
vn 0.615799 0.578510 -0.534900
vn 0.587152 0.608252 -0.534117
vn 0.567632 0.650550 -0.504557
vn 0.513398 0.653537 -0.556158
vn 0.847753 0.149118 -0.508998
vn 0.878175 0.154469 -0.452712
vn 0.953838 0.067478 -0.292644
vn 0.903995 0.092285 -0.417464
vn 0.924174 0.162556 -0.345656
vn 0.767167 0.403339 -0.498772
vn 0.778768 0.328936 -0.534154
vn 0.888167 0.289914 -0.356523
vn 0.717814 0.426294 -0.550469
vn 0.713397 0.402300 -0.573777
vn 0.717782 0.395907 -0.572753
vn 0.640341 0.468906 -0.608351
vn 0.644572 0.472004 -0.601448
vn 0.824479 0.353694 -0.441742
vn 0.888168 0.289914 -0.356521
vn 0.766485 0.404472 -0.498902
vn 0.828321 0.355342 -0.433148
vn 0.535208 0.519287 -0.666254
vn 0.717039 0.427413 -0.550611
vn 0.690970 0.514053 -0.508242
vn 0.771131 0.428486 -0.470910
vn 0.766784 0.435608 -0.471475
vn 0.546846 0.530579 -0.647646
vn 0.450265 0.616370 -0.646026
vn 0.505940 0.586537 -0.632455
vn 0.452711 0.685395 -0.570339
vn 0.399707 0.613013 -0.681505
vn 0.232048 0.682808 -0.692768
vn 0.394814 0.743389 -0.539902
vn 0.407010 0.766353 -0.497037
vn 0.379528 0.763624 -0.522338
vn 0.811367 0.264847 -0.521094
vn 0.760034 0.307132 -0.572729
vn 0.787584 0.257084 -0.560017
vn 0.947226 0.166617 -0.273865
vn 0.966532 0.111703 -0.230949
vn 0.924170 0.162561 -0.345664
vn 0.762650 0.314405 -0.565255
vn 0.712976 0.374384 -0.592876
vn 0.735623 0.370567 -0.567043
vn 0.691333 0.386986 -0.610164
vn 0.430656 0.568342 -0.701087
vn 0.791567 0.443094 -0.420820
vn 0.770181 0.459654 -0.442198
vn 0.430655 0.568340 -0.701089
vn 0.410092 0.605167 -0.682348
vn 0.764786 0.460969 -0.450122
vn 0.712470 0.496082 -0.496275
vn 0.330425 0.622185 -0.709722
vn 0.330426 0.622187 -0.709719
vn 0.719725 0.527037 -0.451916
vn 0.703557 0.515198 -0.489467
vn 0.703973 0.547938 -0.451870
vn 0.355267 0.664138 -0.657804
vn 0.350343 0.666886 -0.657664
vn 0.357329 0.676089 -0.644375
vn 0.360668 0.674222 -0.644471
vn 0.641288 0.622207 -0.449009
vn 0.523061 0.690299 -0.499894
vn 0.264928 0.779548 -0.567555
vn 0.264928 0.779548 -0.567555
vn 0.278798 0.820342 -0.499310
vn 0.227461 0.818417 -0.527688
vn 0.282857 0.832283 -0.476757
vn 0.847760 0.149107 -0.508989
vn 0.878185 0.154459 -0.452696
vn 0.678590 0.379846 -0.628676
vn 0.678586 0.379851 -0.628677
vn 0.665861 0.415484 -0.619679
vn 0.670805 0.422739 -0.609354
vn 0.606901 0.444419 -0.658910
vn 0.606903 0.444420 -0.658908
vn 0.606903 0.444420 -0.658908
vn 0.606901 0.444419 -0.658910
vn 0.902062 0.294464 -0.315556
vn 0.518100 0.502699 -0.692002
vn 0.902062 0.294464 -0.315557
vn 0.857337 0.367782 -0.360151
vn 0.802896 0.449436 -0.391618
vn 0.813863 0.408859 -0.412870
vn 0.857335 0.367781 -0.360158
vn 0.809163 0.402520 -0.428057
vn 0.430652 0.568344 -0.701088
vn 0.430651 0.568343 -0.701089
vn 0.520918 0.505433 -0.687882
vn 0.802893 0.449442 -0.391619
vn 0.221811 0.652625 -0.724486
vn 0.224332 0.660041 -0.716953
vn 0.143705 0.693867 -0.705618
vn 0.187157 0.733906 -0.652958
vn 0.242734 0.714251 -0.656449
vn 0.538112 0.710162 -0.453989
vn 0.510381 0.711742 -0.482633
vn 0.538112 0.710162 -0.453988
vn 0.406990 0.766366 -0.497033
vn 0.414925 0.781308 -0.466257
vn 0.811364 0.264862 -0.521091
vn 0.732309 0.314159 -0.604176
vn 0.778604 0.254167 -0.573737
vn 0.953914 0.167774 -0.248796
vn 0.952296 0.167490 -0.255109
vn 0.710011 0.348027 -0.612178
vn 0.672256 0.376300 -0.637550
vn 0.716351 0.351135 -0.602947
vn 0.732312 0.314160 -0.604171
vn 0.672246 0.376309 -0.637556
vn 0.423450 0.558800 -0.713044
vn 0.423447 0.558797 -0.713049
vn 0.376899 0.589451 -0.714489
vn 0.379052 0.592818 -0.710554
vn 0.769438 0.492167 -0.407107
vn 0.763700 0.488497 -0.422058
vn 0.808377 0.452478 -0.376551
vn 0.808358 0.452501 -0.376564
vn 0.324804 0.611609 -0.721413
vn 0.324803 0.611606 -0.721416
vn 0.737092 0.539798 -0.406586
vn 0.737087 0.539795 -0.406600
vn 0.737138 0.539745 -0.406574
vn 0.737136 0.539743 -0.406581
vn 0.649535 0.630245 -0.425318
vn 0.538115 0.710166 -0.453978
vn 0.646826 0.627580 -0.433312
vn 0.562201 0.666967 -0.488963
vn 0.538138 0.710146 -0.453982
vn 0.538138 0.710147 -0.453981
vn 0.173785 0.808523 -0.562218
vn 0.166895 0.867664 -0.468301
vn 0.234368 0.790156 -0.566327
vn 0.278736 0.820348 -0.499335
vn 0.282800 0.832311 -0.476742
vn 0.878151 0.154488 -0.452752
vn 0.847741 0.149138 -0.509012
vn 0.669089 0.374541 -0.641903
vn 0.669089 0.374541 -0.641902
vn 0.641069 0.410066 -0.648750
vn 0.637936 0.408062 -0.653087
vn 0.597672 0.437696 -0.671723
vn 0.597671 0.437695 -0.671724
vn 0.597672 0.437696 -0.671723
vn 0.597671 0.437695 -0.671724
vn 0.905349 0.295493 -0.305004
vn 0.513962 0.498583 -0.698038
vn 0.905349 0.295493 -0.305003
vn 0.864820 0.371006 -0.338291
vn 0.423432 0.558806 -0.713050
vn 0.514660 0.499260 -0.697040
vn 0.423434 0.558809 -0.713047
vn 0.864820 0.371006 -0.338291
vn 0.811055 0.453977 -0.368910
vn 0.837345 0.410450 -0.361088
vn 0.834730 0.409169 -0.368520
vn 0.811039 0.454002 -0.368916
vn 0.222392 0.654492 -0.722622
vn 0.221764 0.652646 -0.724482
vn 0.541672 0.715050 -0.441923
vn 0.480185 0.750985 -0.453259
vn 0.479078 0.749252 -0.457281
vn 0.132349 0.750616 -0.647347
vn 0.145952 0.746716 -0.648932
vn 0.417861 0.786797 -0.454249
vn 0.407003 0.766353 -0.497042
vn 0.811372 0.264802 -0.521110
vn 0.727643 0.312134 -0.610826
vn 0.776398 0.253388 -0.577062
vn 0.727646 0.312135 -0.610821
vn 0.700541 0.343378 -0.625567
vn 0.667514 0.373660 -0.644052
vn 0.702114 0.344149 -0.623376
vn 0.953903 0.167814 -0.248811
vn 0.953501 0.167744 -0.250394
vn 0.667509 0.373664 -0.644055
vn 0.421563 0.556497 -0.715958
vn 0.421565 0.556499 -0.715955
vn 0.373677 0.584445 -0.720270
vn 0.374209 0.585276 -0.719319
vn 0.323427 0.608986 -0.724245
vn 0.323428 0.608987 -0.724244
vn 0.812292 0.454846 -0.365097
vn 0.776417 0.496660 -0.387949
vn 0.777789 0.497537 -0.384060
vn 0.812367 0.454745 -0.365057
vn 0.741265 0.542854 -0.394761
vn 0.741266 0.542855 -0.394758
vn 0.741265 0.542854 -0.394761
vn 0.741266 0.542855 -0.394758
vn 0.651486 0.632281 -0.419270
vn 0.541682 0.715063 -0.441887
vn 0.566857 0.690360 -0.449529
vn 0.650888 0.631559 -0.421281
vn 0.568127 0.691906 -0.445530
vn 0.541956 0.714869 -0.441867
vn 0.541954 0.714866 -0.441873
vn 0.151365 0.814443 -0.560152
vn 0.143936 0.816306 -0.559399
vn 0.278921 0.820346 -0.499235
vn 0.282951 0.832201 -0.476844
vn 0.878212 0.154438 -0.452651
vn 0.847773 0.149085 -0.508974
vn 0.666803 0.373145 -0.645086
vn 0.666723 0.373224 -0.645124
vn 0.634025 0.405566 -0.658429
vn 0.633246 0.405068 -0.659484
vn 0.595535 0.435902 -0.674779
vn 0.595385 0.436021 -0.674835
vn 0.595534 0.435901 -0.674781
vn 0.595388 0.436023 -0.674831
vn 0.906113 0.295840 -0.302386
vn 0.512710 0.497713 -0.699579
vn 0.906114 0.295840 -0.302385
vn 0.866652 0.371764 -0.332725
vn 0.421791 0.556364 -0.715927
vn 0.512885 0.497880 -0.699331
vn 0.421791 0.556365 -0.715926
vn 0.841206 0.412327 -0.349798
vn 0.812955 0.455216 -0.363157
vn 0.840570 0.412015 -0.351691
vn 0.866650 0.371764 -0.332729
vn 0.813099 0.455012 -0.363090
vn 0.221799 0.653155 -0.724012
vn 0.221643 0.652695 -0.724475
vn 0.481431 0.753216 -0.448208
vn 0.481704 0.753644 -0.447193
vn 0.542300 0.716436 -0.438897
vn 0.132344 0.750548 -0.647428
vn 0.135732 0.749592 -0.647834
vn 0.418583 0.788158 -0.451216
vn 0.407003 0.766353 -0.497042
vn 0.811354 0.264975 -0.521050
vn 0.775730 0.253340 -0.577980
vn 0.726603 0.311492 -0.612390
vn 0.726602 0.311491 -0.612391
vn 0.666415 0.372927 -0.645613
vn 0.698143 0.342257 -0.628854
vn 0.698534 0.342449 -0.628314
vn 0.953866 0.167946 -0.248866
vn 0.953765 0.167928 -0.249264
vn 0.666415 0.372927 -0.645613
vn 0.421017 0.555970 -0.716688
vn 0.421018 0.555969 -0.716688
vn 0.372913 0.583182 -0.721689
vn 0.373044 0.583388 -0.721454
vn 0.323560 0.608103 -0.724927
vn 0.323559 0.608101 -0.724930
vn 0.813426 0.455196 -0.362125
vn 0.779533 0.498574 -0.379146
vn 0.779874 0.498792 -0.378158
vn 0.813426 0.455196 -0.362125
vn 0.742452 0.543438 -0.391715
vn 0.742454 0.543440 -0.391710
vn 0.742143 0.543782 -0.391822
vn 0.742144 0.543783 -0.391820
vn 0.652536 0.632293 -0.417615
vn 0.651820 0.632605 -0.418259
vn 0.652367 0.632129 -0.418127
vn 0.570645 0.694989 -0.437442
vn 0.570958 0.695370 -0.436427
vn 0.542309 0.716447 -0.438867
vn 0.543268 0.715792 -0.438750
vn 0.543269 0.715794 -0.438746
vn 0.145791 0.815873 -0.559550
vn 0.143942 0.816332 -0.559359
vn 0.253324 0.854960 -0.452626
vn 0.283148 0.832047 -0.476997
vn 0.279167 0.820349 -0.499092
vn 0.815816 0.198879 -0.543039
vn 0.878022 0.154592 -0.452967
vn 0.847675 0.149249 -0.509090
vn 0.694353 0.345186 -0.631443
vn 0.665796 0.373517 -0.645911
vn 0.743259 0.292383 -0.601730
vn 0.666216 0.372814 -0.645884
vn 0.632383 0.404347 -0.660753
vn 0.665599 0.373405 -0.646179
vn 0.632191 0.404224 -0.661013
vn 0.666240 0.372653 -0.645952
vn 0.619026 0.415277 -0.666598
vn 0.595101 0.435373 -0.675503
vn 0.595099 0.435372 -0.675506
vn 0.594235 0.436077 -0.675811
vn 0.594235 0.436077 -0.675812
vn 0.906796 0.295008 -0.301149
vn 0.906346 0.295834 -0.301694
vn 0.963531 0.131303 -0.233169
vn 0.510635 0.498594 -0.700468
vn 0.775832 0.252994 -0.577995
vn 0.515157 0.495558 -0.699311
vn 0.893204 0.062816 -0.445243
vn 0.512995 0.497081 -0.699819
vn 0.905057 0.298632 -0.302805
vn 0.906346 0.295832 -0.301695
vn 0.867325 0.371567 -0.331188
vn 0.452563 0.536783 -0.712075
vn 0.357701 0.590835 -0.723162
vn 0.421675 0.555586 -0.716599
vn 0.513044 0.497122 -0.699754
vn 0.421674 0.555584 -0.716602
vn 0.813591 0.455288 -0.361638
vn 0.867326 0.371567 -0.331184
vn 0.842186 0.412744 -0.346936
vn 0.842030 0.412668 -0.347406
vn 0.816039 0.452012 -0.360229
vn 0.783984 0.494628 -0.375116
vn 0.812844 0.456012 -0.362406
vn 0.714285 0.573934 -0.400496
vn 0.813009 0.456104 -0.361920
vn 0.850775 0.399523 -0.341414
vn 0.321115 0.609074 -0.725199
vn 0.221955 0.652699 -0.724376
vn 0.221917 0.652586 -0.724489
vn 0.123445 0.687501 -0.715614
vn 0.575476 0.693764 -0.433034
vn 0.541640 0.716876 -0.438992
vn 0.482574 0.754022 -0.445616
vn 0.546072 0.714352 -0.437613
vn 0.541864 0.717176 -0.438225
vn 0.482506 0.753916 -0.445868
vn 0.132296 0.750296 -0.647730
vn 0.132384 0.750816 -0.647109
vn 0.133235 0.750577 -0.647212
vn 0.148116 0.838129 -0.524978
vn 0.407490 0.765842 -0.497431
vn 0.148392 0.882096 -0.447087
vn 0.419382 0.788192 -0.450414
vn 0.353334 0.818459 -0.453078
vn 0.241180 0.858653 -0.452269
vn 0.420438 0.787666 -0.450349
vn 0.652061 0.632938 -0.417380
vn 0.158279 0.881441 -0.444983
vn 0.157067 0.882972 -0.442369
vn 0.155509 0.881935 -0.444980
vn 0.156613 0.880421 -0.447583
vn -0.158278 0.881437 -0.444992
vn -0.156611 0.880418 -0.447591
vn -0.155509 0.881936 -0.444979
vn -0.157065 0.882972 -0.442369
vn -0.892849 0.231019 -0.386588
vn -0.898333 0.256291 -0.356808
vn -0.846797 0.153742 -0.509214
vn -0.915801 0.166270 -0.365599
vn -0.842103 0.217888 -0.493342
vn -0.858773 0.295582 -0.418497
vn -0.874608 0.274375 -0.399724
vn -0.653800 0.540944 -0.529080
vn -0.567967 0.541083 -0.620196
vn -0.533369 0.560002 -0.633968
vn -0.487380 0.565795 -0.665084
vn -0.966410 0.072627 -0.246530
vn -0.916073 0.105654 -0.386842
vn -0.929372 0.168734 -0.328323
vn -0.940612 0.170775 -0.293403
vn -0.767364 0.447890 -0.458855
vn -0.797817 0.266302 -0.540899
vn -0.733853 0.443254 -0.514767
vn -0.763193 0.437896 -0.475166
vn -0.769535 0.431927 -0.470379
vn -0.694947 0.516838 -0.499927
vn -0.690952 0.513867 -0.508455
vn -0.797818 0.266302 -0.540898
vn -0.791668 0.389512 -0.470682
vn -0.786864 0.317279 -0.529319
vn -0.775678 0.332707 -0.536311
vn -0.624966 0.614796 -0.481086
vn -0.710314 0.404577 -0.575996
vn -0.531991 0.650336 -0.542262
vn -0.500691 0.637649 -0.585416
vn -0.457394 0.641397 -0.615956
vn -0.427771 0.626516 -0.651529
vn -0.463281 0.718510 -0.518762
vn -0.274648 0.813699 -0.512311
vn -0.334213 0.635577 -0.695948
vn -0.322827 0.655775 -0.682452
vn -0.874341 0.291844 -0.387755
vn -0.854881 0.352478 -0.380706
vn -0.893300 0.298173 -0.336316
vn -0.846796 0.153742 -0.509215
vn -0.856805 0.155559 -0.491617
vn -0.827860 0.362153 -0.428361
vn -0.813255 0.373655 -0.446093
vn -0.842211 0.368431 -0.393622
vn -0.795434 0.421083 -0.435861
vn -0.795943 0.425476 -0.430633
vn -0.786505 0.447974 -0.425123
vn -0.689671 0.392811 -0.608320
vn -0.528525 0.705945 -0.471490
vn -0.477330 0.712423 -0.514402
vn -0.634002 0.471519 -0.612953
vn -0.666656 0.495804 -0.556550
vn -0.675315 0.420091 -0.606195
vn -0.695853 0.396340 -0.598918
vn -0.407673 0.775293 -0.482414
vn -0.407670 0.775288 -0.482425
vn -0.617837 0.459496 -0.638076
vn -0.597573 0.472210 -0.648016
vn -0.634003 0.471519 -0.612952
vn -0.522994 0.514483 -0.679548
vn -0.378127 0.722565 -0.578722
vn -0.381840 0.720973 -0.578270
vn -0.387123 0.730955 -0.561997
vn -0.381485 0.733375 -0.562699
vn -0.439738 0.587352 -0.679447
vn -0.528487 0.519886 -0.671133
vn -0.160086 0.703914 -0.692010
vn -0.242775 0.719257 -0.650945
vn -0.242775 0.719257 -0.650945
vn -0.229987 0.681380 -0.694858
vn -0.222607 0.659516 -0.717973
vn -0.940612 0.170773 -0.293402
vn -0.929372 0.168733 -0.328323
vn -0.797518 0.454246 -0.397022
vn -0.797518 0.454246 -0.397022
vn -0.757131 0.480333 -0.442756
vn -0.747642 0.479007 -0.459983
vn -0.725820 0.539805 -0.426375
vn -0.725822 0.539806 -0.426371
vn -0.725820 0.539805 -0.426375
vn -0.725822 0.539806 -0.426371
vn -0.780460 0.260508 -0.568347
vn -0.641211 0.630777 -0.436999
vn -0.780460 0.260508 -0.568346
vn -0.737254 0.322517 -0.593665
vn -0.737254 0.322517 -0.593666
vn -0.677361 0.385800 -0.626371
vn -0.717708 0.367182 -0.591669
vn -0.727248 0.368451 -0.579097
vn -0.538498 0.646974 -0.539856
vn -0.528528 0.705949 -0.471481
vn -0.635878 0.625531 -0.452074
vn -0.635878 0.625530 -0.452073
vn -0.528528 0.705949 -0.471481
vn -0.528525 0.705945 -0.471490
vn -0.677355 0.385805 -0.626375
vn -0.284945 0.844205 -0.454009
vn -0.282418 0.836719 -0.469192
vn -0.425642 0.568524 -0.703995
vn -0.326938 0.621742 -0.711722
vn -0.425641 0.568524 -0.703995
vn -0.425642 0.568524 -0.703995
vn -0.393004 0.640104 -0.660162
vn -0.144382 0.818837 -0.555571
vn -0.147077 0.729675 -0.667789
vn -0.178326 0.862802 -0.473046
vn -0.264022 0.782216 -0.564297
vn -0.203741 0.802367 -0.560979
vn -0.334207 0.635579 -0.695949
vn -0.326932 0.621744 -0.711723
vn -0.874332 0.291853 -0.387769
vn -0.857385 0.375068 -0.352441
vn -0.899884 0.300382 -0.316193
vn -0.849307 0.154201 -0.504875
vn -0.846794 0.153745 -0.509217
vn -0.802844 0.457280 -0.382541
vn -0.826931 0.412865 -0.381743
vn -0.857387 0.375069 -0.352435
vn -0.821651 0.410229 -0.395729
vn -0.802834 0.457294 -0.382543
vn -0.535642 0.715399 -0.448655
vn -0.473727 0.749131 -0.463018
vn -0.471580 0.745736 -0.470626
vn -0.671223 0.382328 -0.635047
vn -0.649165 0.422099 -0.632786
vn -0.671233 0.382318 -0.635043
vn -0.643071 0.418136 -0.641578
vn -0.413337 0.785992 -0.459750
vn -0.413335 0.785989 -0.459755
vn -0.599899 0.446179 -0.664112
vn -0.599903 0.446182 -0.664108
vn -0.599931 0.446155 -0.664100
vn -0.599933 0.446156 -0.664098
vn -0.514865 0.506456 -0.691676
vn -0.425664 0.568512 -0.703992
vn -0.425662 0.568510 -0.703994
vn -0.516217 0.507785 -0.689692
vn -0.222633 0.659504 -0.717976
vn -0.230012 0.681361 -0.694868
vn -0.940607 0.170781 -0.293414
vn -0.929373 0.168741 -0.328318
vn -0.766638 0.498494 -0.404685
vn -0.805491 0.458728 -0.375171
vn -0.769348 0.500256 -0.397301
vn -0.805448 0.458783 -0.375195
vn -0.733990 0.545960 -0.403964
vn -0.734042 0.545899 -0.403952
vn -0.734043 0.545900 -0.403948
vn -0.733987 0.545958 -0.403972
vn -0.776106 0.259062 -0.574932
vn -0.645210 0.634592 -0.425437
vn -0.776106 0.259062 -0.574932
vn -0.728173 0.318555 -0.606866
vn -0.535643 0.715399 -0.448655
vn -0.559327 0.689712 -0.459838
vn -0.564217 0.695742 -0.444525
vn -0.702612 0.350798 -0.619094
vn -0.705669 0.352324 -0.614736
vn -0.668171 0.380590 -0.639296
vn -0.728174 0.318555 -0.606865
vn -0.535642 0.715399 -0.448655
vn -0.535643 0.715399 -0.448655
vn -0.668171 0.380590 -0.639295
vn -0.284353 0.842331 -0.457845
vn -0.284982 0.844193 -0.454008
vn -0.422207 0.563896 -0.709763
vn -0.374864 0.592793 -0.712793
vn -0.375890 0.594416 -0.710898
vn -0.422204 0.563891 -0.709768
vn -0.334178 0.635583 -0.695960
vn -0.324220 0.616643 -0.717379
vn -0.874393 0.291798 -0.387673
vn -0.901515 0.300849 -0.311064
vn -0.860971 0.376683 -0.341817
vn -0.860972 0.376684 -0.341813
vn -0.834603 0.416698 -0.360278
vn -0.833344 0.416069 -0.363903
vn -0.806782 0.459464 -0.371478
vn -0.846806 0.153727 -0.509204
vn -0.847434 0.153841 -0.508122
vn -0.806703 0.459576 -0.371511
vn -0.476321 0.753358 -0.453398
vn -0.537395 0.717730 -0.442798
vn -0.476849 0.754192 -0.451452
vn -0.414792 0.788595 -0.453944
vn -0.414794 0.788598 -0.453938
vn -0.666694 0.379683 -0.641373
vn -0.635493 0.413217 -0.652227
vn -0.633983 0.412235 -0.654315
vn -0.666652 0.379725 -0.641392
vn -0.595442 0.442919 -0.670277
vn -0.595445 0.442922 -0.670273
vn -0.595565 0.442820 -0.670233
vn -0.595567 0.442821 -0.670231
vn -0.512813 0.504493 -0.694629
vn -0.513150 0.504823 -0.694140
vn -0.422031 0.563998 -0.709786
vn -0.422031 0.563998 -0.709786
vn -0.222528 0.659548 -0.717968
vn -0.229916 0.681447 -0.694815
vn -0.929374 0.168766 -0.328301
vn -0.940591 0.170803 -0.293454
vn -0.807429 0.459832 -0.369613
vn -0.772694 0.502429 -0.387955
vn -0.807346 0.459943 -0.369654
vn -0.773356 0.502860 -0.386073
vn -0.736234 0.547193 -0.398170
vn -0.736000 0.547455 -0.398243
vn -0.736236 0.547194 -0.398165
vn -0.735997 0.547453 -0.398252
vn -0.775014 0.258704 -0.576564
vn -0.645942 0.635763 -0.422568
vn -0.775014 0.258703 -0.576564
vn -0.725923 0.317550 -0.610080
vn -0.537389 0.717722 -0.442819
vn -0.645863 0.635234 -0.423484
vn -0.564167 0.695778 -0.444533
vn -0.564771 0.696523 -0.442593
vn -0.537389 0.717722 -0.442819
vn -0.537395 0.717730 -0.442798
vn -0.665934 0.379251 -0.642418
vn -0.725922 0.317550 -0.610081
vn -0.698022 0.348534 -0.625532
vn -0.698782 0.348914 -0.624470
vn -0.665934 0.379251 -0.642418
vn -0.284398 0.843878 -0.454960
vn -0.284553 0.844339 -0.454006
vn -0.421350 0.562743 -0.711185
vn -0.373721 0.590686 -0.715138
vn -0.373464 0.590279 -0.715609
vn -0.421352 0.562748 -0.711180
vn -0.334060 0.635592 -0.696007
vn -0.323454 0.615413 -0.718780
vn -0.874328 0.291855 -0.387776
vn -0.861940 0.376936 -0.339084
vn -0.901878 0.301052 -0.309812
vn -0.836520 0.417554 -0.354800
vn -0.807751 0.460015 -0.368679
vn -0.836211 0.417399 -0.355710
vn -0.861939 0.376936 -0.339087
vn -0.846974 0.153735 -0.508920
vn -0.846818 0.153706 -0.509190
vn -0.807589 0.460240 -0.368754
vn -0.477622 0.755446 -0.448529
vn -0.477495 0.755244 -0.449004
vn -0.537792 0.718337 -0.441329
vn -0.414887 0.789377 -0.452497
vn -0.414890 0.789382 -0.452485
vn -0.631726 0.410767 -0.657414
vn -0.665383 0.379197 -0.643020
vn -0.665553 0.379034 -0.642940
vn -0.632103 0.411013 -0.656898
vn -0.594124 0.442277 -0.671869
vn -0.594128 0.442279 -0.671864
vn -0.594576 0.441908 -0.671712
vn -0.594577 0.441909 -0.671710
vn -0.512452 0.503899 -0.695327
vn -0.421350 0.562743 -0.711185
vn -0.421353 0.562748 -0.711180
vn -0.512536 0.503982 -0.695204
vn -0.229719 0.681632 -0.694699
vn -0.222306 0.659637 -0.717955
vn -0.958416 0.145215 -0.245664
vn -0.930615 0.232862 -0.282368
vn -0.940777 0.170558 -0.292998
vn -0.929357 0.168487 -0.328494
vn -0.833823 0.422658 -0.355104
vn -0.807879 0.459842 -0.368615
vn -0.876639 0.351208 -0.328873
vn -0.807747 0.460328 -0.368297
vn -0.774180 0.503396 -0.383716
vn -0.774344 0.503502 -0.383244
vn -0.808035 0.459933 -0.368159
vn -0.808154 0.459928 -0.367904
vn -0.761964 0.518872 -0.387533
vn -0.735788 0.548609 -0.397044
vn -0.736736 0.547566 -0.396726
vn -0.736734 0.547565 -0.396731
vn -0.735785 0.548606 -0.397053
vn -0.774549 0.258727 -0.577179
vn -0.774883 0.258433 -0.576861
vn -0.864284 0.123046 -0.487723
vn -0.645291 0.636919 -0.421822
vn -0.901933 0.301180 -0.309526
vn -0.646469 0.635756 -0.421773
vn -0.647790 0.634614 -0.421466
vn -0.973936 0.073647 -0.214533
vn -0.774878 0.258439 -0.576865
vn -0.775414 0.257758 -0.576450
vn -0.725295 0.317371 -0.610919
vn -0.566220 0.698127 -0.438193
vn -0.646389 0.635677 -0.422016
vn -0.646104 0.635923 -0.422080
vn -0.566076 0.697949 -0.438662
vn -0.537784 0.718330 -0.441351
vn -0.459721 0.765961 -0.449401
vn -0.575017 0.692552 -0.435576
vn -0.537824 0.718303 -0.441345
vn -0.537830 0.718311 -0.441325
vn -0.595769 0.677032 -0.432073
vn -0.665190 0.379088 -0.643284
vn -0.725296 0.317371 -0.610919
vn -0.696954 0.347889 -0.627080
vn -0.697146 0.347984 -0.626813
vn -0.634952 0.406996 -0.656651
vn -0.567846 0.462903 -0.680641
vn -0.665571 0.378726 -0.643103
vn -0.664673 0.379445 -0.643608
vn -0.706503 0.337558 -0.622020
vn -0.665763 0.378836 -0.642840
vn -0.150029 0.881776 -0.447171
vn -0.286758 0.843443 -0.454284
vn -0.414892 0.789586 -0.452127
vn -0.286798 0.843561 -0.454039
vn -0.421135 0.562456 -0.711539
vn -0.423909 0.560815 -0.711187
vn -0.421136 0.562463 -0.711534
vn -0.372948 0.589884 -0.716203
vn -0.372880 0.589777 -0.716327
vn -0.123856 0.694677 -0.708578
vn -0.273224 0.638366 -0.719609
vn -0.189798 0.672121 -0.715703
vn -0.511065 0.504652 -0.695801
vn -0.320085 0.616661 -0.719218
vn -0.323261 0.615108 -0.719128
vn -0.334028 0.635595 -0.696021
vn -0.892013 0.067090 -0.447004
vn -0.891943 0.067031 -0.447151
vn -0.892063 0.067069 -0.446907
vn -0.891980 0.067062 -0.447073
vn -0.891927 0.067127 -0.447168
vn -0.891968 0.067110 -0.447090
vn -0.892042 0.067116 -0.446942
vn -0.891934 0.067085 -0.447161
vn -0.892017 0.067078 -0.446997
vn -0.892025 0.067122 -0.446975
vn -0.891908 0.067050 -0.447219
vn -0.891936 0.067072 -0.447159
vn -0.892066 0.067062 -0.446902
vn -0.892067 0.067072 -0.446899
vn -0.892048 0.067093 -0.446932
vn -0.892045 0.067066 -0.446942
vn -0.891894 0.067099 -0.447239
vn -0.891896 0.067106 -0.447234
vn -0.891903 0.067058 -0.447227
vn -0.891914 0.067104 -0.447199
vn -0.890296 -0.104932 -0.443128
vn -0.900147 -0.201745 -0.386049
vn -0.913919 -0.096288 -0.394310
vn -0.914775 -0.084970 -0.394927
vn -0.890745 -0.146597 -0.430213
vn -0.917037 -0.158818 -0.365814
vn -0.927587 -0.074618 -0.366081
vn -0.920801 -0.111488 -0.373758
vn -0.912675 -0.110504 -0.393462
vn -0.931521 -0.114675 -0.345135
vn -0.929819 -0.091944 -0.356346
vn -0.931343 -0.092095 -0.352304
vn -0.937344 -0.063763 -0.342522
vn -0.943434 -0.069462 -0.324202
vn -0.943251 -0.072440 -0.324083
vn -0.937662 -0.072011 -0.340006
vn -0.943019 0.069431 -0.325413
vn -0.930800 0.114587 -0.347104
vn -0.942818 0.072407 -0.325347
vn -0.937214 0.071977 -0.341248
vn -0.936944 0.063736 -0.343619
vn -0.915995 0.158638 -0.368493
vn -0.930753 0.092036 -0.353876
vn -0.929224 0.091885 -0.357910
vn -0.927092 0.074578 -0.367340
vn -0.889488 0.104836 -0.444771
vn -0.898776 0.201437 -0.389391
vn -0.911900 0.110410 -0.395282
vn -0.920052 0.111397 -0.375627
vn -0.914175 0.084914 -0.396325
vn -0.889647 0.146416 -0.432539
vn -0.913241 0.096217 -0.395895
vn -0.908542 -0.095722 -0.406680
vn -0.903862 -0.024451 -0.427126
vn -0.916785 -0.046815 -0.396627
vn -0.895801 -0.045744 -0.442094
vn -0.897191 -0.043047 -0.439540
vn -0.916392 -0.056741 -0.396241
vn -0.924527 -0.074372 -0.373789
vn -0.925062 -0.044385 -0.377214
vn -0.923763 -0.085804 -0.373229
vn -0.952317 -0.041918 -0.302218
vn -0.948777 -0.038307 -0.313616
vn -0.953693 -0.008716 -0.300654
vn -0.953690 0.003430 -0.300772
vn -0.953380 0.023360 -0.300868
vn -0.953510 -0.023364 -0.300454
vn -0.951306 -0.017488 -0.307751
vn -0.953693 -0.008716 -0.300654
vn -0.953603 0.011973 -0.300828
vn -0.951336 0.044328 -0.304949
vn -0.947404 0.041992 -0.317274
vn -0.951152 0.017342 -0.308236
vn -0.957136 0.017731 -0.289097
vn -0.950773 0.014066 -0.309568
vn -0.924025 0.074332 -0.375036
vn -0.923185 0.085751 -0.374669
vn -0.924760 0.044370 -0.377956
vn -0.896860 0.043031 -0.440217
vn -0.915989 0.056716 -0.397173
vn -0.895448 0.045726 -0.442812
vn -0.916453 0.046799 -0.397396
vn -0.903677 0.024446 -0.427516
vn -0.907852 0.095649 -0.408236
vn -0.938874 -0.063867 -0.338284
vn -0.939862 -0.040823 -0.339106
vn -0.935763 -0.042880 -0.350013
vn -0.902275 -0.034926 -0.429745
vn -0.927979 -0.035921 -0.370896
vn -0.939344 0.047213 -0.339711
vn -0.935489 0.042867 -0.350747
vn -0.927738 0.035912 -0.371500
vn -0.902011 0.034916 -0.430300
vn -0.938478 0.063840 -0.339386
vn -0.953705 0.000000 -0.300743
vn -0.953603 0.011973 -0.300828
vn -0.954116 0.014780 -0.299071
vn -0.954776 -0.014790 -0.296957
vn -0.925855 0.014342 -0.377607
vn -0.953693 -0.008716 -0.300654
vn -0.925953 -0.014343 -0.377367
vn -0.894427 0.000000 -0.447214
vn -0.894427 0.000000 -0.447214
vn -0.894427 0.000000 -0.447214
vn -0.894427 0.000000 -0.447214
vn -0.894427 0.000000 -0.447214
vn -0.894427 0.000000 -0.447214
vn -0.894427 0.000000 -0.447214
vn -0.894427 0.000000 -0.447214
vn -0.894427 0.000000 -0.447214
vn -0.894427 0.000000 -0.447214
vn -0.894427 0.000000 -0.447214
vn -0.894427 0.000000 -0.447214
vn -0.894427 0.000000 -0.447214
vn -0.894427 0.000000 -0.447214
vn -0.894427 0.000000 -0.447214
vn -0.894427 0.000000 -0.447214
vn -0.894427 0.000000 -0.447214
vn -0.894427 0.000000 -0.447214
vn -0.890116 -0.018620 -0.455353
vn -0.897917 0.000000 -0.440165
vn -0.878693 -0.055207 -0.474184
vn -0.880797 -0.092448 -0.464381
vn -0.870012 -0.128294 -0.476045
vn -0.902873 -0.022538 -0.429316
vn -0.898439 -0.067393 -0.433896
vn -0.862416 -0.167220 -0.477782
vn -0.891879 -0.111875 -0.438219
vn -0.851906 -0.208400 -0.480443
vn -0.883226 -0.155888 -0.442279
vn -0.839544 -0.248988 -0.482877
vn -0.872514 -0.199342 -0.446074
vn -0.825365 -0.288908 -0.485083
vn -0.859783 -0.242147 -0.449598
vn -0.809405 -0.328086 -0.487056
vn -0.791704 -0.366450 -0.488794
vn -0.845072 -0.284219 -0.452849
vn -0.828427 -0.325474 -0.455824
vn -0.772303 -0.403930 -0.490294
vn -0.809893 -0.365831 -0.458521
vn -0.751245 -0.440460 -0.491555
vn -0.789519 -0.405212 -0.460937
vn -0.728575 -0.475972 -0.492573
vn -0.767356 -0.443543 -0.463070
vn -0.739239 -0.478022 -0.474365
vn -0.704341 -0.510403 -0.493349
vn -0.713854 -0.513868 -0.475765
vn -0.682133 -0.546530 -0.485798
vn -0.686853 -0.548465 -0.476885
vn -0.654724 -0.578739 -0.486207
vn -0.658290 -0.581750 -0.477725
vn -0.625897 -0.609673 -0.486366
vn -0.628227 -0.613657 -0.478285
vn -0.595705 -0.639276 -0.486273
vn -0.596724 -0.644125 -0.478564
vn -0.564205 -0.667492 -0.485928
vn -0.563844 -0.673095 -0.478563
vn -0.531455 -0.694268 -0.485332
vn -0.529650 -0.700511 -0.478283
vn -0.497514 -0.719553 -0.484483
vn -0.494211 -0.726317 -0.477723
vn -0.462444 -0.743295 -0.483383
vn -0.457595 -0.750458 -0.476886
vn -0.418967 -0.771222 -0.479253
vn -0.426306 -0.765447 -0.482031
vn -0.380325 -0.791912 -0.477733
vn -0.389914 -0.787470 -0.477345
vn -0.340717 -0.810798 -0.475940
vn -0.351739 -0.806273 -0.475608
vn -0.300218 -0.827834 -0.473877
vn -0.312702 -0.823345 -0.473624
vn -0.272875 -0.838646 -0.471395
vn -0.258908 -0.842977 -0.471546
vn -0.216867 -0.856187 -0.468949
vn -0.232331 -0.852136 -0.468921
vn -0.174177 -0.867424 -0.466089
vn -0.191146 -0.863779 -0.466207
vn -0.149396 -0.873542 -0.463255
vn -0.130923 -0.876652 -0.462969
vn -0.087193 -0.883839 -0.459594
vn -0.107162 -0.881393 -0.460068
vn -0.064526 -0.887303 -0.456651
vn -0.043077 -0.888953 -0.455967
vn 0.001332 -0.891969 -0.452094
vn -0.021570 -0.891246 -0.453007
vn 0.002199 -0.892030 -0.451972
vn 0.012878 -0.892247 -0.451364
vn 0.003337 -0.892090 -0.451845
vn -0.008571 -0.891580 -0.452783
vn -0.029978 -0.890478 -0.454038
vn -0.002498 -0.891728 -0.452565
vn 0.000000 -0.891844 -0.452343
vn -0.000019 -0.891840 -0.452351
vn -0.006332 -0.891943 -0.452104
vn -0.000867 -0.891879 -0.452274
vn -0.009227 -0.891859 -0.452220
vn -0.002498 -0.891682 -0.452655
vn -0.000511 -0.891897 -0.452238
vn -0.001843 -0.891638 -0.452745
vn -0.006656 -0.891941 -0.452104
vn -0.053675 -0.892349 -0.448144
vn -0.024250 -0.891947 -0.451489
vn -0.079568 -0.892657 -0.443657
vn -0.105416 -0.891364 -0.440861
vn -0.026205 -0.892481 -0.450323
vn 0.000000 -0.892458 -0.451129
vn -0.002886 -0.892021 -0.451984
vn -0.023659 -0.894318 -0.446805
vn -0.012058 -0.893022 -0.449852
vn -0.041199 -0.894583 -0.444999
vn -0.026235 -0.893526 -0.448245
vn -0.002768 -0.892931 -0.450186
vn -0.015929 -0.892265 -0.451230
f 621//1 1//1 622//1
f 2//2 3//2 623//2
f 4//3 5//3 6//3
f 6//4 5//4 620//4
f 620//5 5//5 621//5
f 621//6 5//6 1//6
f 2//7 7//7 3//7
f 1//8 7//8 2//8
f 1//9 624//9 7//9
f 618//10 617//10 619//10
f 1//11 8//11 624//11
f 624//12 8//12 9//12
f 8//13 10//13 625//13
f 625//14 10//14 626//14
f 626//15 10//15 627//15
f 617//16 613//16 619//16
f 614//17 613//17 615//17
f 615//18 613//18 11//18
f 11//19 613//19 616//19
f 616//20 613//20 617//20
f 612//21 611//21 613//21
f 5//22 12//22 1//22
f 1//23 12//23 8//23
f 8//24 12//24 10//24
f 613//25 12//25 619//25
f 611//26 12//26 613//26
f 13//27 12//27 611//27
f 619//28 12//28 5//28
f 10//29 12//29 14//29
f 14//30 12//30 628//30
f 628//31 12//31 629//31
f 13//32 632//32 12//32
f 15//33 16//33 17//33
f 17//34 16//34 18//34
f 16//35 19//35 127//35
f 127//36 19//36 128//36
f 15//37 19//37 16//37
f 19//38 116//38 20//38
f 116//39 104//39 21//39
f 15//40 104//40 19//40
f 19//41 104//41 116//41
f 104//42 106//42 105//42
f 15//43 22//43 104//43
f 104//44 22//44 106//44
f 22//45 23//45 24//45
f 22//46 25//46 23//46
f 22//47 95//47 25//47
f 95//48 26//48 27//48
f 27//49 26//49 28//49
f 22//50 29//50 95//50
f 95//51 29//51 26//51
f 22//52 30//52 29//52
f 15//53 30//53 22//53
f 30//54 31//54 76//54
f 31//55 32//55 65//55
f 65//56 32//56 66//56
f 30//57 32//57 31//57
f 15//58 32//58 30//58
f 15//59 53//59 32//59
f 53//60 33//60 34//60
f 53//61 35//61 33//61
f 15//62 35//62 53//62
f 15//63 57//63 35//63
f 36//64 37//64 15//64
f 15//65 37//65 57//65
f 57//66 37//66 60//66
f 38//67 37//67 39//67
f 39//68 37//68 638//68
f 638//69 37//69 640//69
f 640//70 37//70 36//70
f 13//71 40//71 632//71
f 41//72 40//72 13//72
f 632//73 40//73 38//73
f 38//74 40//74 37//74
f 41//75 42//75 40//75
f 43//76 42//76 41//76
f 43//77 44//77 42//77
f 45//78 44//78 43//78
f 45//79 46//79 44//79
f 47//80 48//80 49//80
f 49//81 48//81 45//81
f 48//82 50//82 45//82
f 45//83 50//83 46//83
f 48//84 51//84 50//84
f 52//85 53//85 34//85
f 52//86 34//86 33//86
f 54//87 33//87 35//87
f 54//88 52//88 33//88
f 55//89 54//89 35//89
f 56//90 35//90 57//90
f 56//91 55//91 35//91
f 56//92 58//92 55//92
f 59//93 57//93 60//93
f 59//94 58//94 56//94
f 59//95 61//95 58//95
f 59//96 56//96 57//96
f 62//97 60//97 37//97
f 62//98 37//98 63//98
f 62//99 59//99 60//99
f 62//100 63//100 61//100
f 62//101 61//101 59//101
f 64//102 65//102 66//102
f 64//103 66//103 32//103
f 64//104 32//104 53//104
f 64//105 53//105 52//105
f 67//106 68//106 69//106
f 70//107 64//107 52//107
f 70//108 52//108 54//108
f 70//109 54//109 55//109
f 70//110 58//110 71//110
f 70//111 72//111 64//111
f 70//112 55//112 58//112
f 73//113 67//113 72//113
f 73//114 70//114 71//114
f 73//115 74//115 68//115
f 73//116 71//116 74//116
f 73//117 68//117 67//117
f 73//118 72//118 70//118
f 75//119 76//119 31//119
f 75//120 31//120 65//120
f 75//121 65//121 64//121
f 77//122 78//122 79//122
f 80//123 81//123 75//123
f 80//124 75//124 64//124
f 82//125 78//125 77//125
f 82//126 81//126 80//126
f 82//127 83//127 78//127
f 82//128 69//128 83//128
f 82//129 77//129 81//129
f 84//130 72//130 67//130
f 84//131 69//131 82//131
f 84//132 80//132 64//132
f 84//133 67//133 69//133
f 84//134 64//134 72//134
f 84//135 82//135 80//135
f 85//136 76//136 75//136
f 85//137 27//137 28//137
f 85//138 28//138 26//138
f 85//139 26//139 29//139
f 85//140 29//140 30//140
f 85//141 30//141 76//141
f 86//142 85//142 75//142
f 87//143 88//143 89//143
f 90//144 75//144 81//144
f 90//145 86//145 75//145
f 90//146 81//146 77//146
f 90//147 91//147 86//147
f 92//148 77//148 79//148
f 92//149 93//149 88//149
f 92//150 79//150 93//150
f 92//151 91//151 90//151
f 92//152 87//152 91//152
f 92//153 88//153 87//153
f 92//154 90//154 77//154
f 94//155 23//155 25//155
f 94//156 25//156 95//156
f 94//157 95//157 27//157
f 94//158 85//158 86//158
f 94//159 27//159 85//159
f 96//160 94//160 86//160
f 97//161 98//161 99//161
f 97//162 100//162 98//162
f 101//163 87//163 89//163
f 101//164 89//164 100//164
f 101//165 97//165 102//165
f 101//166 91//166 87//166
f 101//167 86//167 91//167
f 101//168 102//168 96//168
f 101//169 96//169 86//169
f 101//170 100//170 97//170
f 103//171 104//171 105//171
f 103//172 105//172 106//172
f 103//173 106//173 22//173
f 103//174 22//174 24//174
f 107//175 24//175 23//175
f 107//176 103//176 24//176
f 107//177 94//177 96//177
f 107//178 23//178 94//178
f 108//179 107//179 96//179
f 109//180 110//180 111//180
f 109//181 112//181 110//181
f 113//182 97//182 99//182
f 113//183 114//183 108//183
f 113//184 112//184 109//184
f 113//185 109//185 114//185
f 113//186 108//186 96//186
f 113//187 99//187 112//187
f 113//188 102//188 97//188
f 113//189 96//189 102//189
f 115//190 20//190 116//190
f 115//191 116//191 21//191
f 115//192 21//192 104//192
f 117//193 118//193 115//193
f 117//194 107//194 108//194
f 117//195 115//195 104//195
f 117//196 104//196 103//196
f 117//197 103//197 107//197
f 119//198 118//198 117//198
f 119//199 117//199 108//199
f 120//200 121//200 122//200
f 120//201 123//201 121//201
f 124//202 108//202 114//202
f 124//203 119//203 108//203
f 124//204 114//204 109//204
f 124//205 109//205 111//205
f 124//206 125//206 119//206
f 124//207 123//207 120//207
f 124//208 120//208 125//208
f 124//209 111//209 123//209
f 126//210 16//210 127//210
f 126//211 127//211 128//211
f 129//212 128//212 19//212
f 129//213 126//213 128//213
f 130//214 126//214 129//214
f 131//215 130//215 129//215
f 132//216 19//216 20//216
f 132//217 115//217 118//217
f 132//218 20//218 115//218
f 132//219 118//219 119//219
f 132//220 129//220 19//220
f 132//221 131//221 129//221
f 133//222 130//222 131//222
f 133//223 132//223 119//223
f 133//224 131//224 132//224
f 134//225 119//225 125//225
f 134//226 125//226 120//226
f 134//227 135//227 136//227
f 134//228 137//228 135//228
f 134//229 122//229 137//229
f 134//230 120//230 122//230
f 134//231 133//231 119//231
f 138//232 36//232 15//232
f 138//233 15//233 17//233
f 138//234 17//234 18//234
f 139//235 18//235 16//235
f 139//236 140//236 138//236
f 139//237 130//237 133//237
f 139//238 16//238 126//238
f 139//239 126//239 130//239
f 139//240 138//240 18//240
f 141//241 142//241 143//241
f 141//242 36//242 138//242
f 141//243 143//243 36//243
f 141//244 140//244 139//244
f 141//245 138//245 140//245
f 141//246 139//246 133//246
f 144//247 133//247 134//247
f 144//248 134//248 136//248
f 144//249 145//249 142//249
f 144//250 136//250 145//250
f 144//251 142//251 141//251
f 144//252 141//252 133//252
f 146//253 147//253 148//253
f 149//254 150//254 147//254
f 151//255 152//255 153//255
f 154//256 155//256 149//256
f 156//257 154//257 149//257
f 156//258 149//258 147//258
f 157//259 152//259 151//259
f 157//260 146//260 152//260
f 157//261 151//261 158//261
f 159//262 157//262 160//262
f 159//263 160//263 161//263
f 162//264 157//264 159//264
f 162//265 159//265 163//265
f 162//266 163//266 164//266
f 165//267 166//267 167//267
f 165//268 167//268 168//268
f 165//269 168//269 169//269
f 165//270 169//270 170//270
f 165//271 170//271 171//271
f 165//272 171//272 156//272
f 165//273 156//273 147//273
f 165//274 147//274 146//274
f 172//275 146//275 157//275
f 172//276 157//276 162//276
f 172//277 162//277 173//277
f 174//278 172//278 175//278
f 176//279 177//279 178//279
f 176//280 178//280 179//280
f 176//281 179//281 165//281
f 176//282 165//282 146//282
f 176//283 146//283 172//283
f 176//284 172//284 174//284
f 180//285 176//285 174//285
f 136//286 142//286 145//286
f 135//287 142//287 136//287
f 121//288 135//288 137//288
f 121//289 137//289 122//289
f 111//290 121//290 123//290
f 111//291 135//291 121//291
f 111//292 142//292 135//292
f 99//293 143//293 142//293
f 99//294 111//294 110//294
f 99//295 110//295 112//295
f 99//296 142//296 111//296
f 100//297 99//297 98//297
f 88//298 100//298 89//298
f 88//299 99//299 100//299
f 93//300 99//300 88//300
f 79//301 99//301 93//301
f 83//302 79//302 78//302
f 69//303 99//303 79//303
f 69//304 79//304 83//304
f 74//305 99//305 69//305
f 74//306 69//306 68//306
f 181//307 58//307 61//307
f 181//308 61//308 63//308
f 182//309 99//309 74//309
f 182//310 74//310 71//310
f 182//311 71//311 58//311
f 182//312 181//312 183//312
f 182//313 183//313 184//313
f 182//314 184//314 185//314
f 182//315 58//315 181//315
f 186//316 180//316 143//316
f 186//317 99//317 182//317
f 186//318 176//318 180//318
f 186//319 143//319 99//319
f 187//320 176//320 186//320
f 187//321 188//321 189//321
f 187//322 189//322 176//322
f 190//323 188//323 187//323
f 190//324 191//324 188//324
f 190//325 192//325 191//325
f 190//326 193//326 192//326
f 190//327 194//327 193//327
f 195//328 196//328 197//328
f 198//329 194//329 190//329
f 198//330 199//330 194//330
f 198//331 200//331 199//331
f 198//332 201//332 200//332
f 198//333 202//333 201//333
f 198//334 197//334 202//334
f 203//335 197//335 198//335
f 203//336 195//336 197//336
f 204//337 203//337 198//337
f 205//338 204//338 198//338
f 206//339 181//339 63//339
f 206//340 63//340 37//340
f 207//341 206//341 37//341
f 207//342 181//342 206//342
f 208//343 37//343 40//343
f 208//344 40//344 186//344
f 208//345 183//345 181//345
f 208//346 184//346 183//346
f 208//347 185//347 184//347
f 208//348 182//348 185//348
f 208//349 186//349 182//349
f 208//350 207//350 37//350
f 208//351 181//351 207//351
f 209//352 42//352 187//352
f 209//353 187//353 186//353
f 210//354 40//354 42//354
f 210//355 186//355 40//355
f 210//356 42//356 209//356
f 210//357 209//357 186//357
f 211//358 42//358 44//358
f 211//359 44//359 190//359
f 211//360 190//360 187//360
f 211//361 187//361 42//361
f 212//362 213//362 214//362
f 215//363 44//363 46//363
f 215//364 213//364 44//364
f 215//365 214//365 213//365
f 216//366 198//366 190//366
f 216//367 212//367 214//367
f 216//368 190//368 212//368
f 216//369 214//369 215//369
f 217//370 190//370 44//370
f 217//371 213//371 212//371
f 217//372 44//372 213//372
f 217//373 212//373 190//373
f 218//374 46//374 198//374
f 218//375 198//375 216//375
f 218//376 215//376 46//376
f 218//377 216//377 215//377
f 219//378 205//378 198//378
f 219//379 220//379 205//379
f 219//380 221//380 220//380
f 222//381 46//381 50//381
f 222//382 221//382 46//382
f 222//383 220//383 221//383
f 223//384 198//384 46//384
f 223//385 221//385 219//385
f 223//386 46//386 221//386
f 223//387 219//387 198//387
f 224//388 205//388 220//388
f 224//389 220//389 222//389
f 225//390 50//390 205//390
f 225//391 222//391 50//391
f 225//392 205//392 224//392
f 225//393 224//393 222//393
f 226//394 227//394 228//394
f 226//395 229//395 227//395
f 230//396 226//396 228//396
f 230//397 231//397 226//397
f 232//398 226//398 231//398
f 232//399 229//399 226//399
f 233//400 232//400 231//400
f 234//401 235//401 236//401
f 237//402 235//402 234//402
f 238//403 237//403 234//403
f 239//404 237//404 238//404
f 240//405 237//405 239//405
f 241//406 50//406 228//406
f 241//407 228//407 227//407
f 242//408 50//408 51//408
f 242//409 228//409 50//409
f 242//410 230//410 228//410
f 243//411 233//411 244//411
f 243//412 232//412 233//412
f 245//413 231//413 230//413
f 246//414 244//414 236//414
f 246//415 243//415 244//415
f 246//416 247//416 243//416
f 248//417 246//417 236//417
f 248//418 236//418 235//418
f 249//419 233//419 231//419
f 249//420 231//420 245//420
f 250//421 244//421 233//421
f 250//422 233//422 249//422
f 251//423 248//423 235//423
f 252//424 236//424 244//424
f 252//425 234//425 236//425
f 252//426 244//426 250//426
f 253//427 252//427 250//427
f 254//428 251//428 235//428
f 255//429 254//429 235//429
f 255//430 235//430 237//430
f 255//431 237//431 240//431
f 255//432 256//432 254//432
f 257//433 258//433 256//433
f 259//434 240//434 239//434
f 260//435 240//435 259//435
f 261//436 240//436 260//436
f 262//437 227//437 229//437
f 263//438 229//438 232//438
f 263//439 262//439 229//439
f 264//440 245//440 230//440
f 264//441 242//441 51//441
f 264//442 230//442 242//442
f 265//443 263//443 232//443
f 265//444 243//444 247//444
f 265//445 232//445 243//445
f 266//446 265//446 247//446
f 267//447 251//447 254//447
f 268//448 253//448 269//448
f 268//449 252//449 253//449
f 270//450 267//450 254//450
f 270//451 254//451 256//451
f 271//452 252//452 268//452
f 271//453 234//453 252//453
f 272//454 256//454 258//454
f 272//455 270//455 256//455
f 273//456 271//456 268//456
f 273//457 234//457 271//457
f 273//458 238//458 234//458
f 274//459 240//459 257//459
f 274//460 257//460 256//460
f 274//461 255//461 240//461
f 274//462 256//462 255//462
f 275//463 238//463 273//463
f 276//464 239//464 238//464
f 277//465 257//465 240//465
f 277//466 240//466 261//466
f 278//467 261//467 260//467
f 279//468 277//468 261//468
f 279//469 261//469 278//469
f 280//470 50//470 241//470
f 280//471 241//471 227//471
f 281//472 282//472 266//472
f 281//473 266//473 247//473
f 281//474 246//474 248//474
f 281//475 247//475 246//475
f 283//476 251//476 284//476
f 283//477 281//477 248//477
f 283//478 284//478 281//478
f 283//479 248//479 251//479
f 285//480 245//480 264//480
f 286//481 284//481 251//481
f 287//482 245//482 285//482
f 287//483 249//483 245//483
f 288//484 269//484 253//484
f 288//485 250//485 249//485
f 288//486 249//486 287//486
f 288//487 253//487 250//487
f 289//488 251//488 267//488
f 289//489 267//489 270//489
f 289//490 286//490 251//490
f 290//491 269//491 288//491
f 291//492 258//492 205//492
f 291//493 272//493 258//493
f 292//494 205//494 258//494
f 292//495 257//495 277//495
f 292//496 258//496 257//496
f 293//497 276//497 294//497
f 293//498 259//498 239//498
f 293//499 239//499 276//499
f 295//500 260//500 259//500
f 295//501 259//501 293//501
f 296//502 227//502 262//502
f 297//503 262//503 263//503
f 297//504 296//504 262//504
f 298//505 264//505 51//505
f 298//506 285//506 264//506
f 299//507 263//507 265//507
f 299//508 266//508 282//508
f 299//509 265//509 266//509
f 299//510 297//510 263//510
f 300//511 299//511 282//511
f 301//512 286//512 289//512
f 302//513 301//513 289//513
f 302//514 270//514 272//514
f 302//515 289//515 270//515
f 303//516 273//516 268//516
f 303//517 268//517 269//517
f 303//518 290//518 304//518
f 303//519 269//519 290//519
f 305//520 272//520 291//520
f 305//521 302//521 272//521
f 306//522 273//522 303//522
f 306//523 275//523 273//523
f 307//524 306//524 303//524
f 307//525 275//525 306//525
f 308//526 275//526 307//526
f 309//527 294//527 276//527
f 309//528 238//528 275//528
f 309//529 276//529 238//529
f 310//530 294//530 309//530
f 310//531 293//531 294//531
f 311//532 292//532 277//532
f 311//533 279//533 204//533
f 311//534 277//534 279//534
f 312//535 278//535 260//535
f 312//536 279//536 278//536
f 313//537 280//537 227//537
f 313//538 50//538 280//538
f 314//539 300//539 282//539
f 314//540 315//540 300//540
f 314//541 282//541 281//541
f 314//542 281//542 284//542
f 316//543 317//543 314//543
f 316//544 284//544 286//544
f 316//545 314//545 284//545
f 316//546 286//546 317//546
f 318//547 285//547 298//547
f 319//548 317//548 286//548
f 320//549 285//549 318//549
f 320//550 287//550 285//550
f 321//551 301//551 302//551
f 321//552 319//552 286//552
f 321//553 286//553 301//553
f 322//554 287//554 320//554
f 322//555 304//555 290//555
f 322//556 288//556 287//556
f 322//557 290//557 288//557
f 323//558 304//558 322//558
f 324//559 305//559 291//559
f 324//560 291//560 205//560
f 325//561 310//561 326//561
f 325//562 295//562 293//562
f 325//563 293//563 310//563
f 327//564 205//564 292//564
f 327//565 292//565 311//565
f 328//566 295//566 325//566
f 328//567 260//567 295//567
f 329//568 227//568 296//568
f 330//569 296//569 297//569
f 330//570 329//570 296//570
f 331//571 330//571 297//571
f 331//572 297//572 299//572
f 331//573 300//573 315//573
f 331//574 299//574 300//574
f 332//575 298//575 51//575
f 332//576 318//576 298//576
f 333//577 331//577 315//577
f 334//578 319//578 321//578
f 335//579 334//579 321//579
f 335//580 302//580 305//580
f 335//581 321//581 302//581
f 336//582 335//582 305//582
f 336//583 305//583 324//583
f 337//584 323//584 338//584
f 337//585 303//585 304//585
f 337//586 307//586 303//586
f 337//587 304//587 323//587
f 339//588 307//588 337//588
f 339//589 308//589 307//589
f 340//590 339//590 337//590
f 340//591 308//591 339//591
f 341//592 308//592 340//592
f 342//593 326//593 310//593
f 342//594 309//594 275//594
f 342//595 275//595 308//595
f 342//596 310//596 309//596
f 343//597 326//597 342//597
f 343//598 325//598 326//598
f 344//599 327//599 311//599
f 344//600 311//600 204//600
f 345//601 312//601 260//601
f 345//602 279//602 312//602
f 346//603 313//603 227//603
f 346//604 50//604 313//604
f 347//605 348//605 333//605
f 347//606 333//606 315//606
f 347//607 315//607 314//607
f 347//608 314//608 317//608
f 349//609 319//609 350//609
f 349//610 347//610 317//610
f 349//611 350//611 347//611
f 349//612 317//612 319//612
f 351//613 318//613 332//613
f 352//614 350//614 319//614
f 353//615 318//615 351//615
f 353//616 320//616 318//616
f 354//617 334//617 335//617
f 354//618 352//618 319//618
f 354//619 319//619 334//619
f 355//620 322//620 320//620
f 355//621 338//621 323//621
f 355//622 323//622 322//622
f 355//623 320//623 353//623
f 356//624 338//624 355//624
f 357//625 336//625 324//625
f 357//626 324//626 205//626
f 358//627 325//627 343//627
f 358//628 328//628 325//628
f 358//629 343//629 359//629
f 360//630 205//630 327//630
f 360//631 327//631 344//631
f 361//632 328//632 358//632
f 361//633 260//633 328//633
f 362//634 227//634 329//634
f 363//635 362//635 329//635
f 363//636 329//636 330//636
f 364//637 363//637 330//637
f 364//638 333//638 348//638
f 364//639 330//639 331//639
f 364//640 331//640 333//640
f 365//641 332//641 51//641
f 365//642 351//642 332//642
f 366//643 364//643 348//643
f 367//644 352//644 354//644
f 368//645 367//645 354//645
f 368//646 335//646 336//646
f 368//647 354//647 335//647
f 369//648 368//648 336//648
f 369//649 336//649 357//649
f 370//650 356//650 371//650
f 370//651 337//651 338//651
f 370//652 340//652 337//652
f 370//653 338//653 356//653
f 372//654 340//654 370//654
f 372//655 341//655 340//655
f 373//656 372//656 370//656
f 373//657 341//657 372//657
f 374//658 341//658 373//658
f 375//659 308//659 341//659
f 375//660 341//660 374//660
f 375//661 342//661 308//661
f 375//662 343//662 342//662
f 375//663 359//663 343//663
f 376//664 358//664 359//664
f 376//665 359//665 375//665
f 377//666 360//666 344//666
f 377//667 344//667 204//667
f 378//668 204//668 279//668
f 378//669 279//669 345//669
f 378//670 345//670 260//670
f 379//671 227//671 362//671
f 379//672 346//672 227//672
f 379//673 50//673 346//673
f 380//674 363//674 364//674
f 380//675 364//675 366//675
f 380//676 362//676 363//676
f 381//677 366//677 348//677
f 381//678 348//678 347//678
f 381//679 380//679 366//679
f 381//680 347//680 350//680
f 382//681 362//681 380//681
f 382//682 380//682 381//682
f 383//683 381//683 350//683
f 383//684 350//684 352//684
f 383//685 382//685 381//685
f 383//686 352//686 382//686
f 384//687 51//687 204//687
f 384//688 351//688 365//688
f 384//689 365//689 51//689
f 385//690 205//690 50//690
f 385//691 379//691 362//691
f 385//692 362//692 382//692
f 385//693 50//693 379//693
f 385//694 382//694 352//694
f 386//695 384//695 374//695
f 386//696 351//696 384//696
f 386//697 353//697 351//697
f 387//698 369//698 385//698
f 387//699 368//699 369//699
f 387//700 352//700 367//700
f 387//701 385//701 352//701
f 387//702 367//702 368//702
f 388//703 371//703 356//703
f 388//704 353//704 386//704
f 388//705 355//705 353//705
f 388//706 356//706 355//706
f 389//707 386//707 374//707
f 389//708 373//708 370//708
f 389//709 370//709 371//709
f 389//710 374//710 373//710
f 389//711 371//711 388//711
f 389//712 388//712 386//712
f 390//713 385//713 369//713
f 390//714 369//714 357//714
f 390//715 357//715 205//715
f 390//716 205//716 385//716
f 391//717 375//717 374//717
f 391//718 376//718 375//718
f 392//719 361//719 358//719
f 392//720 391//720 374//720
f 392//721 376//721 391//721
f 392//722 358//722 376//722
f 393//723 204//723 205//723
f 393//724 205//724 360//724
f 393//725 360//725 377//725
f 393//726 377//726 204//726
f 394//727 260//727 361//727
f 394//728 384//728 204//728
f 394//729 361//729 392//729
f 394//730 378//730 260//730
f 394//731 204//731 378//731
f 394//732 392//732 374//732
f 394//733 374//733 384//733
f 395//734 51//734 48//734
f 395//735 48//735 203//735
f 395//736 203//736 204//736
f 395//737 204//737 51//737
f 396//738 48//738 47//738
f 396//739 47//739 195//739
f 396//740 195//740 203//740
f 396//741 203//741 48//741
f 397//742 398//742 399//742
f 397//743 400//743 398//743
f 401//744 399//744 49//744
f 401//745 397//745 399//745
f 401//746 402//746 397//746
f 403//747 397//747 402//747
f 403//748 400//748 397//748
f 404//749 405//749 406//749
f 407//750 405//750 404//750
f 408//751 407//751 404//751
f 409//752 407//752 408//752
f 410//753 47//753 49//753
f 410//754 49//754 399//754
f 411//755 399//755 398//755
f 411//756 410//756 399//756
f 412//757 403//757 413//757
f 414//758 402//758 401//758
f 415//759 413//759 406//759
f 415//760 412//760 413//760
f 415//761 416//761 412//761
f 417//762 415//762 406//762
f 417//763 406//763 405//763
f 418//764 402//764 414//764
f 419//765 413//765 403//765
f 419//766 403//766 402//766
f 419//767 402//767 418//767
f 420//768 417//768 405//768
f 421//769 413//769 419//769
f 422//770 405//770 407//770
f 423//771 422//771 407//771
f 423//772 407//772 409//772
f 423//773 409//773 424//773
f 423//774 425//774 422//774
f 426//775 427//775 425//775
f 428//776 424//776 429//776
f 430//777 424//777 428//777
f 431//778 398//778 400//778
f 432//779 400//779 403//779
f 432//780 431//780 400//780
f 433//781 401//781 49//781
f 433//782 414//782 401//782
f 434//783 432//783 403//783
f 434//784 403//784 412//784
f 435//785 432//785 434//785
f 435//786 434//786 412//786
f 435//787 412//787 416//787
f 436//788 435//788 416//788
f 437//789 421//789 438//789
f 439//790 440//790 422//790
f 439//791 422//791 425//791
f 441//792 404//792 406//792
f 441//793 406//793 413//793
f 441//794 421//794 437//794
f 441//795 413//795 421//795
f 442//796 439//796 425//796
f 442//797 425//797 427//797
f 443//798 441//798 437//798
f 443//799 408//799 404//799
f 443//800 404//800 441//800
f 444//801 408//801 443//801
f 445//802 423//802 424//802
f 445//803 425//803 423//803
f 445//804 424//804 426//804
f 445//805 426//805 425//805
f 446//806 409//806 408//806
f 446//807 408//807 444//807
f 447//808 430//808 196//808
f 447//809 424//809 430//809
f 447//810 426//810 424//810
f 448//811 430//811 428//811
f 448//812 196//812 430//812
f 449//813 410//813 411//813
f 449//814 411//814 398//814
f 450//815 451//815 436//815
f 450//816 436//816 416//816
f 450//817 415//817 417//817
f 450//818 416//818 415//818
f 452//819 453//819 450//819
f 452//820 417//820 420//820
f 452//821 450//821 417//821
f 452//822 420//822 453//822
f 454//823 414//823 433//823
f 455//824 453//824 420//824
f 456//825 414//825 454//825
f 456//826 418//826 414//826
f 457//827 418//827 456//827
f 457//828 438//828 421//828
f 457//829 419//829 418//829
f 457//830 421//830 419//830
f 458//831 405//831 422//831
f 458//832 422//832 440//832
f 458//833 455//833 420//833
f 458//834 420//834 405//834
f 459//835 458//835 440//835
f 459//836 440//836 439//836
f 460//837 438//837 457//837
f 461//838 427//838 195//838
f 461//839 442//839 427//839
f 462//840 446//840 444//840
f 463//841 429//841 424//841
f 463//842 446//842 462//842
f 463//843 409//843 446//843
f 463//844 424//844 409//844
f 464//845 196//845 195//845
f 464//846 447//846 196//846
f 464//847 195//847 427//847
f 464//848 427//848 426//848
f 464//849 426//849 447//849
f 465//850 428//850 429//850
f 465//851 429//851 463//851
f 466//852 398//852 431//852
f 467//853 431//853 432//853
f 467//854 466//854 431//854
f 468//855 454//855 433//855
f 468//856 433//856 49//856
f 469//857 436//857 451//857
f 469//858 432//858 435//858
f 469//859 467//859 432//859
f 469//860 435//860 436//860
f 470//861 469//861 451//861
f 471//862 472//862 459//862
f 471//863 439//863 442//863
f 471//864 459//864 439//864
f 473//865 460//865 474//865
f 473//866 437//866 438//866
f 473//867 438//867 460//867
f 473//868 443//868 437//868
f 475//869 471//869 442//869
f 475//870 442//870 461//870
f 476//871 443//871 473//871
f 476//872 444//872 443//872
f 477//873 476//873 473//873
f 477//874 444//874 476//874
f 478//875 444//875 477//875
f 479//876 462//876 444//876
f 479//877 463//877 462//877
f 479//878 444//878 478//878
f 480//879 196//879 448//879
f 480//880 448//880 428//880
f 481//881 410//881 449//881
f 481//882 449//882 398//882
f 482//883 451//883 450//883
f 482//884 483//884 470//884
f 482//885 450//885 453//885
f 482//886 470//886 451//886
f 484//887 482//887 453//887
f 484//888 455//888 485//888
f 484//889 485//889 482//889
f 484//890 453//890 455//890
f 486//891 454//891 468//891
f 487//892 485//892 455//892
f 488//893 454//893 486//893
f 488//894 456//894 454//894
f 489//895 459//895 472//895
f 489//896 458//896 459//896
f 489//897 455//897 458//897
f 490//898 457//898 456//898
f 490//899 460//899 457//899
f 490//900 474//900 460//900
f 490//901 456//901 488//901
f 491//902 472//902 471//902
f 491//903 489//903 472//903
f 492//904 474//904 490//904
f 493//905 475//905 461//905
f 493//906 461//906 195//906
f 494//907 479//907 478//907
f 495//908 465//908 463//908
f 495//909 463//909 479//909
f 495//910 479//910 494//910
f 496//911 428//911 465//911
f 496//912 465//912 495//912
f 497//913 398//913 466//913
f 498//914 497//914 466//914
f 498//915 466//915 467//915
f 499//916 498//916 467//916
f 499//917 467//917 469//917
f 499//918 469//918 470//918
f 499//919 470//919 483//919
f 500//920 468//920 49//920
f 500//921 486//921 468//921
f 501//922 499//922 483//922
f 502//923 491//923 471//923
f 502//924 503//924 491//924
f 502//925 471//925 475//925
f 504//926 502//926 475//926
f 504//927 475//927 493//927
f 505//928 492//928 506//928
f 505//929 473//929 474//929
f 505//930 477//930 473//930
f 505//931 474//931 492//931
f 507//932 477//932 505//932
f 507//933 478//933 477//933
f 508//934 507//934 505//934
f 508//935 478//935 507//935
f 509//936 478//936 508//936
f 510//937 478//937 509//937
f 510//938 494//938 478//938
f 510//939 495//939 494//939
f 511//940 196//940 480//940
f 511//941 480//941 428//941
f 512//942 481//942 398//942
f 512//943 410//943 481//943
f 513//944 514//944 501//944
f 513//945 483//945 482//945
f 513//946 501//946 483//946
f 513//947 482//947 485//947
f 515//948 487//948 516//948
f 515//949 513//949 485//949
f 515//950 516//950 513//950
f 515//951 485//951 487//951
f 517//952 486//952 500//952
f 518//953 516//953 487//953
f 519//954 486//954 517//954
f 519//955 488//955 486//955
f 520//956 491//956 503//956
f 520//957 487//957 455//957
f 520//958 455//958 489//958
f 520//959 489//959 491//959
f 521//960 520//960 503//960
f 521//961 503//961 502//961
f 522//962 506//962 492//962
f 522//963 488//963 519//963
f 522//964 490//964 488//964
f 522//965 492//965 490//965
f 523//966 506//966 522//966
f 524//967 504//967 493//967
f 524//968 493//968 195//968
f 525//969 510//969 509//969
f 526//970 495//970 510//970
f 526//971 496//971 495//971
f 526//972 510//972 525//972
f 527//973 428//973 496//973
f 527//974 496//974 526//974
f 528//975 398//975 497//975
f 529//976 497//976 498//976
f 529//977 528//977 497//977
f 530//978 498//978 499//978
f 530//979 501//979 514//979
f 530//980 499//980 501//980
f 530//981 529//981 498//981
f 531//982 517//982 500//982
f 531//983 500//983 49//983
f 532//984 530//984 514//984
f 533//985 502//985 504//985
f 533//986 521//986 502//986
f 533//987 534//987 521//987
f 535//988 533//988 504//988
f 535//989 504//989 524//989
f 536//990 508//990 505//990
f 536//991 523//991 537//991
f 536//992 506//992 523//992
f 536//993 505//993 506//993
f 538//994 508//994 536//994
f 538//995 509//995 508//995
f 539//996 538//996 536//996
f 539//997 509//997 538//997
f 540//998 509//998 539//998
f 541//999 525//999 509//999
f 541//1000 526//1000 525//1000
f 541//1001 509//1001 540//1001
f 542//1002 511//1002 428//1002
f 542//1003 196//1003 511//1003
f 543//1004 47//1004 410//1004
f 543//1005 398//1005 528//1005
f 543//1006 410//1006 512//1006
f 543//1007 512//1007 398//1007
f 544//1008 529//1008 530//1008
f 544//1009 530//1009 532//1009
f 544//1010 528//1010 529//1010
f 545//1011 532//1011 514//1011
f 545//1012 514//1012 513//1012
f 545//1013 513//1013 516//1013
f 545//1014 544//1014 532//1014
f 546//1015 528//1015 544//1015
f 546//1016 544//1016 545//1016
f 547//1017 545//1017 516//1017
f 547//1018 546//1018 545//1018
f 547//1019 518//1019 546//1019
f 547//1020 516//1020 518//1020
f 548//1021 49//1021 196//1021
f 548//1022 517//1022 531//1022
f 548//1023 531//1023 49//1023
f 549//1024 195//1024 47//1024
f 549//1025 543//1025 528//1025
f 549//1026 546//1026 518//1026
f 549//1027 528//1027 546//1027
f 549//1028 47//1028 543//1028
f 550//1029 517//1029 548//1029
f 550//1030 548//1030 540//1030
f 550//1031 519//1031 517//1031
f 551//1032 520//1032 521//1032
f 551//1033 549//1033 518//1033
f 551//1034 518//1034 487//1034
f 551//1035 487//1035 520//1035
f 551//1036 521//1036 534//1036
f 552//1037 533//1037 535//1037
f 552//1038 535//1038 549//1038
f 552//1039 551//1039 534//1039
f 552//1040 534//1040 533//1040
f 552//1041 549//1041 551//1041
f 553//1042 537//1042 523//1042
f 553//1043 519//1043 550//1043
f 553//1044 522//1044 519//1044
f 553//1045 523//1045 522//1045
f 554//1046 539//1046 536//1046
f 554//1047 540//1047 539//1047
f 554//1048 537//1048 553//1048
f 554//1049 550//1049 540//1049
f 554//1050 553//1050 550//1050
f 554//1051 536//1051 537//1051
f 555//1052 195//1052 549//1052
f 555//1053 535//1053 524//1053
f 555//1054 549//1054 535//1054
f 555//1055 524//1055 195//1055
f 556//1056 541//1056 540//1056
f 557//1057 556//1057 540//1057
f 557//1058 541//1058 556//1058
f 557//1059 526//1059 541//1059
f 557//1060 527//1060 526//1060
f 558//1061 548//1061 196//1061
f 558//1062 542//1062 428//1062
f 558//1063 196//1063 542//1063
f 558//1064 540//1064 548//1064
f 558//1065 557//1065 540//1065
f 558//1066 527//1066 557//1066
f 558//1067 428//1067 527//1067
f 559//1068 560//1068 561//1068
f 562//1069 49//1069 45//1069
f 562//1070 560//1070 49//1070
f 562//1071 561//1071 560//1071
f 563//1072 197//1072 196//1072
f 563//1073 559//1073 561//1073
f 563//1074 196//1074 559//1074
f 563//1075 561//1075 562//1075
f 564//1076 560//1076 559//1076
f 564//1077 559//1077 196//1077
f 565//1078 562//1078 45//1078
f 565//1079 563//1079 562//1079
f 566//1080 196//1080 49//1080
f 566//1081 49//1081 560//1081
f 566//1082 564//1082 196//1082
f 566//1083 560//1083 564//1083
f 567//1084 45//1084 197//1084
f 567//1085 197//1085 563//1085
f 567//1086 565//1086 45//1086
f 567//1087 563//1087 565//1087
f 568//1088 197//1088 45//1088
f 569//1089 202//1089 197//1089
f 569//1090 568//1090 570//1090
f 569//1091 570//1091 571//1091
f 569//1092 197//1092 568//1092
f 572//1093 201//1093 202//1093
f 572//1094 571//1094 573//1094
f 572//1095 569//1095 571//1095
f 572//1096 202//1096 569//1096
f 574//1097 200//1097 201//1097
f 574//1098 572//1098 573//1098
f 574//1099 201//1099 572//1099
f 574//1100 573//1100 575//1100
f 576//1101 199//1101 200//1101
f 576//1102 200//1102 574//1102
f 576//1103 574//1103 575//1103
f 577//1104 192//1104 193//1104
f 578//1105 191//1105 192//1105
f 578//1106 192//1106 577//1106
f 578//1107 577//1107 579//1107
f 578//1108 579//1108 580//1108
f 581//1109 188//1109 191//1109
f 581//1110 191//1110 578//1110
f 581//1111 578//1111 580//1111
f 581//1112 580//1112 582//1112
f 583//1113 43//1113 189//1113
f 584//1114 189//1114 188//1114
f 584//1115 188//1115 581//1115
f 584//1116 581//1116 582//1116
f 584//1117 582//1117 585//1117
f 584//1118 583//1118 189//1118
f 584//1119 585//1119 583//1119
f 586//1120 570//1120 568//1120
f 586//1121 568//1121 45//1121
f 587//1122 570//1122 586//1122
f 587//1123 586//1123 45//1123
f 588//1124 587//1124 45//1124
f 589//1125 570//1125 587//1125
f 589//1126 573//1126 571//1126
f 589//1127 587//1127 588//1127
f 589//1128 571//1128 570//1128
f 590//1129 199//1129 576//1129
f 590//1130 576//1130 575//1130
f 591//1131 590//1131 592//1131
f 591//1132 592//1132 593//1132
f 594//1133 193//1133 194//1133
f 594//1134 194//1134 199//1134
f 594//1135 199//1135 590//1135
f 594//1136 590//1136 591//1136
f 595//1137 594//1137 591//1137
f 595//1138 577//1138 193//1138
f 595//1139 579//1139 577//1139
f 595//1140 193//1140 594//1140
f 595//1141 593//1141 592//1141
f 595//1142 591//1142 593//1142
f 596//1143 582//1143 580//1143
f 596//1144 585//1144 582//1144
f 597//1145 596//1145 598//1145
f 597//1146 598//1146 43//1146
f 597//1147 585//1147 596//1147
f 599//1148 597//1148 43//1148
f 599//1149 585//1149 597//1149
f 599//1150 43//1150 583//1150
f 599//1151 583//1151 585//1151
f 600//1152 575//1152 573//1152
f 600//1153 590//1153 575//1153
f 600//1154 573//1154 589//1154
f 600//1155 588//1155 45//1155
f 600//1156 589//1156 588//1156
f 601//1157 579//1157 595//1157
f 601//1158 596//1158 580//1158
f 601//1159 598//1159 596//1159
f 601//1160 43//1160 598//1160
f 601//1161 580//1161 579//1161
f 602//1162 45//1162 43//1162
f 602//1163 595//1163 592//1163
f 602//1164 601//1164 595//1164
f 602//1165 590//1165 600//1165
f 602//1166 43//1166 601//1166
f 602//1167 592//1167 590//1167
f 602//1168 600//1168 45//1168
f 603//1169 43//1169 41//1169
f 603//1170 604//1170 43//1170
f 603//1171 605//1171 604//1171
f 606//1172 176//1172 189//1172
f 606//1173 607//1173 605//1173
f 606//1174 189//1174 607//1174
f 608//1175 605//1175 607//1175
f 608//1176 43//1176 604//1176
f 608//1177 604//1177 605//1177
f 609//1178 41//1178 176//1178
f 609//1179 176//1179 606//1179
f 609//1180 603//1180 41//1180
f 609//1181 605//1181 603//1181
f 609//1182 606//1182 605//1182
f 610//1183 189//1183 43//1183
f 610//1184 43//1184 608//1184
f 610//1185 607//1185 189//1185
f 610//1186 608//1186 607//1186
f 177//1187 176//1187 41//1187
f 178//1188 41//1188 13//1188
f 178//1189 177//1189 41//1189
f 179//1190 178//1190 13//1190
f 165//1191 179//1191 13//1191
f 165//1192 13//1192 611//1192
f 166//1193 611//1193 612//1193
f 166//1194 165//1194 611//1194
f 167//1195 612//1195 613//1195
f 167//1196 166//1196 612//1196
f 168//1197 613//1197 614//1197
f 168//1198 167//1198 613//1198
f 169//1199 614//1199 615//1199
f 169//1200 168//1200 614//1200
f 170//1201 615//1201 11//1201
f 170//1202 169//1202 615//1202
f 171//1203 170//1203 11//1203
f 171//1204 11//1204 616//1204
f 156//1205 616//1205 617//1205
f 156//1206 171//1206 616//1206
f 154//1207 617//1207 618//1207
f 154//1208 156//1208 617//1208
f 155//1209 618//1209 619//1209
f 155//1210 154//1210 618//1210
f 149//1211 619//1211 5//1211
f 149//1212 5//1212 4//1212
f 149//1213 155//1213 619//1213
f 150//1214 4//1214 6//1214
f 150//1215 149//1215 4//1215
f 147//1216 6//1216 620//1216
f 147//1217 150//1217 6//1217
f 148//1218 620//1218 621//1218
f 148//1219 147//1219 620//1219
f 146//1220 621//1220 622//1220
f 146//1221 148//1221 621//1221
f 152//1222 622//1222 1//1222
f 152//1223 146//1223 622//1223
f 153//1224 1//1224 2//1224
f 153//1225 152//1225 1//1225
f 151//1226 2//1226 623//1226
f 151//1227 153//1227 2//1227
f 158//1228 623//1228 3//1228
f 158//1229 151//1229 623//1229
f 157//1230 3//1230 7//1230
f 157//1231 7//1231 624//1231
f 157//1232 158//1232 3//1232
f 160//1233 624//1233 9//1233
f 160//1234 157//1234 624//1234
f 161//1235 9//1235 8//1235
f 161//1236 160//1236 9//1236
f 159//1237 8//1237 625//1237
f 159//1238 161//1238 8//1238
f 163//1239 159//1239 625//1239
f 163//1240 625//1240 626//1240
f 164//1241 626//1241 627//1241
f 164//1242 163//1242 626//1242
f 162//1243 627//1243 10//1243
f 162//1244 164//1244 627//1244
f 173//1245 162//1245 10//1245
f 173//1246 10//1246 14//1246
f 172//1247 14//1247 628//1247
f 172//1248 173//1248 14//1248
f 175//1249 172//1249 628//1249
f 175//1250 628//1250 629//1250
f 174//1251 629//1251 12//1251
f 174//1252 175//1252 629//1252
f 630//1253 174//1253 12//1253
f 631//1254 12//1254 632//1254
f 631//1255 630//1255 12//1255
f 633//1256 632//1256 38//1256
f 633//1257 38//1257 39//1257
f 633//1258 631//1258 632//1258
f 634//1259 180//1259 174//1259
f 634//1260 174//1260 630//1260
f 635//1261 39//1261 180//1261
f 635//1262 634//1262 630//1262
f 635//1263 633//1263 39//1263
f 635//1264 631//1264 633//1264
f 635//1265 180//1265 634//1265
f 635//1266 630//1266 631//1266
f 636//1267 180//1267 39//1267
f 637//1268 39//1268 638//1268
f 637//1269 636//1269 39//1269
f 639//1270 638//1270 640//1270
f 639//1271 640//1271 36//1271
f 639//1272 637//1272 638//1272
f 641//1273 143//1273 180//1273
f 641//1274 180//1274 636//1274
f 642//1275 36//1275 143//1275
f 642//1276 641//1276 636//1276
f 642//1277 639//1277 36//1277
f 642//1278 637//1278 639//1278
f 642//1279 143//1279 641//1279
f 642//1280 636//1280 637//1280
